<?xml version="1.0" encoding="UTF-8" standalone="no"?>
<!-- Created with Inkscape (http://www.inkscape.org/) -->

<svg
   width="1920"
   height="300"
   viewBox="0 0 1920 300"
   version="1.1"
   id="svg1"
   inkscape:version="1.3.2 (091e20ef0f, 2023-11-25, custom)"
   sodipodi:docname="drawing.svg"
   inkscape:export-filename="verse.svg"
   inkscape:export-xdpi="400"
   inkscape:export-ydpi="400"
   xmlns:inkscape="http://www.inkscape.org/namespaces/inkscape"
   xmlns:sodipodi="http://sodipodi.sourceforge.net/DTD/sodipodi-0.dtd"
   xmlns="http://www.w3.org/2000/svg"
   xmlns:svg="http://www.w3.org/2000/svg">
  <sodipodi:namedview
     id="namedview1"
     pagecolor="#ffffff"
     bordercolor="#000000"
     borderopacity="0.25"
     inkscape:showpageshadow="2"
     inkscape:pageopacity="0.0"
     inkscape:pagecheckerboard="0"
     inkscape:deskcolor="#d1d1d1"
     inkscape:document-units="mm"
     inkscape:zoom="0.65833333"
     inkscape:cx="960"
     inkscape:cy="149.62025"
     inkscape:window-width="1920"
     inkscape:window-height="1060"
     inkscape:window-x="0"
     inkscape:window-y="20"
     inkscape:window-maximized="1"
     inkscape:current-layer="svg1" />
  <defs
     id="defs1" />
  <path
     style="font-size:133.333px;font-family:'(A) Arslan Wessam A';-inkscape-font-specification:'(A) Arslan Wessam A, Normal';text-align:center;text-anchor:middle;display:inline;fill:#558049;fill-opacity:1;stroke-width:1.7"
     d="m 1881.3843,179.65487 q -5.3385,8.85415 -18.0338,8.85415 -3.9062,0 -3.9062,-3.90624 0,-3.90624 3.9062,-3.90624 8.138,0 14.3229,-5.46874 1.6276,-1.43229 2.9297,-1.43229 1.888,0 1.888,2.40885 0,1.5625 -1.1068,3.45051 z m 0.7162,23.69786 q -5.4688,2.34374 -13.1511,2.34374 -6.9661,0 -6.9661,-2.92968 0,-2.08332 5.9245,-2.99478 4.0364,-0.58594 11.1328,-3.58072 0.8463,-0.39062 1.6927,-0.39062 3.776,0 3.776,4.10155 0,2.47395 -2.4088,3.45051 z m -1.3671,-59.73292 q 0,2.99478 -7.4218,6.5104 -1.7578,0.84635 -5.0781,1.6927 -2.9297,0.78125 -3.7761,0.78125 -1.6927,0 -1.6927,-1.04166 0,-1.04167 1.6927,-1.69271 3.711,-1.43228 7.3568,-2.86457 4.2968,-1.82291 5.9244,-3.64583 1.1719,-1.30208 1.4323,-1.30208 1.5625,0 1.5625,1.5625 z m -17.3828,37.20694 q 4.2969,0 4.2969,7.03123 l -0.5208,0.26041 h -2.1485 q -10.3515,0 -19.4661,7.81248 l -6.7057,10.54685 q -5.013,6.4453 -24.5442,6.4453 h -0.8463 q -4.0365,0 -4.0365,-2.40885 0,-2.73437 11.5885,-4.03645 13.4766,-3.38541 13.4766,-6.5104 5.7291,-12.17445 16.2109,-16.21089 7.6171,-2.92968 12.6952,-2.92968 z m -23.0793,-37.4348 q 0.651,0 1.6927,0.1302 1.0416,0.0651 2.0833,0.19532 1.1068,0.0651 1.9531,0.1302 0.9115,0.0651 1.237,0.0651 1.0417,0.0651 1.0417,1.17187 0,0.52083 -0.586,1.6927 -0.5208,1.10677 -1.237,2.34375 -0.7161,1.23697 -1.4973,2.34374 -0.7813,1.04167 -1.1719,1.36719 -0.4557,0.32552 -1.4974,0.71614 -1.0417,0.32552 -2.2786,0.65104 -1.1719,0.32552 -2.2787,0.58594 -1.1068,0.19531 -1.6927,0.19531 l -0.3906,-0.13021 q 0,-0.39062 0.9765,-0.84635 0.9766,-0.45573 2.4089,-1.17187 1.4323,-0.71615 2.9297,-1.82292 1.5625,-1.10676 2.6692,-2.79947 -1.1718,-0.26041 -3.0599,-0.32552 -1.888,-0.13021 -3.5807,-0.13021 -0.4557,0 -0.9114,0.32552 -0.4558,0.26042 -0.8464,0.58594 -0.3255,0.32552 -1.0416,0.91146 l -0.1303,-0.32552 q 0,-0.58594 0.3907,-1.5625 0.4557,-0.97656 1.1718,-1.95312 0.7813,-0.97656 1.6927,-1.6276 0.9766,-0.71614 1.9532,-0.71614 z m -22.6237,17.51297 q 1.3672,3.32031 1.3672,7.48696 0,7.87759 -3.9062,11.71872 -4.2969,4.29687 -12.7604,6.57551 -6.8359,1.82291 -13.5416,1.82291 -3.9063,0 -3.9063,-3.90624 0,-3.90624 3.9063,-3.90624 6.6406,0 13.0859,-1.95312 7.2265,-2.27864 8.9192,-5.79426 0.5208,-1.17187 0.5208,-2.08333 v -0.39062 q -0.1302,-1.10677 -1.2369,-1.10677 -0.2605,0 -0.6511,0.0651 -2.0182,0.39062 -3.8411,0.39062 -6.901,0 -6.901,-5.85936 0,-3.77603 2.8645,-7.09634 3.125,-3.58072 7.4219,-3.58072 5.664,0 8.6588,7.61717 z m -9.9609,-24.80462 -2.2135,3.58072 q -1.1719,1.88801 -3.1901,1.88801 -1.6276,0 -2.8646,-1.10676 -1.237,-1.17188 -1.237,-2.79948 0,-1.04166 0.6511,-2.14843 l 2.2135,-3.58072 q 1.1719,-1.88801 3.1901,-1.88801 1.6276,0 2.8646,1.17187 1.237,1.10677 1.237,2.73437 0,1.04166 -0.6511,2.14843 z m 5.6966,-23.37234 q 0,2.99479 -7.4218,6.5104 -1.7578,0.84635 -5.0781,1.69271 -2.9297,0.78124 -3.7761,0.78124 -1.6927,0 -1.6927,-1.04166 0,-1.04166 1.6927,-1.6927 3.711,-1.43229 7.3568,-2.86458 4.2968,-1.82291 5.9244,-3.64582 1.1719,-1.30208 1.4323,-1.30208 1.5625,0 1.5625,1.56249 z m -23.3398,120.57261 q -12.6301,2.60416 -21.289,2.60416 -29.3619,0 -29.3619,-19.33589 0,-10.67705 9.1146,-21.54942 5.8593,-7.03123 18.6197,-16.92704 -1.5625,-3.97135 -1.5625,-7.68227 0,-4.8828 3.1901,-7.74738 2.8646,-2.60416 7.0313,-2.60416 0.9765,0 1.888,0.13021 9.0494,1.56249 9.0494,6.83592 0,1.56249 -0.7161,3.51561 -1.888,4.8177 -6.9661,8.33332 3.5156,1.82291 8.3984,1.82291 3.9062,0 3.9062,3.90624 0,3.90624 -3.9062,3.90624 -8.9193,0 -14.974,-4.42707 -12.6301,9.63539 -16.927,14.25777 -8.3333,8.98435 -8.3333,18.22912 0,11.52341 21.5494,11.52341 8.0729,0 21.289,-1.43229 11.263,-1.30208 16.4062,-2.34374 3.3854,-0.71615 5.4037,-0.71615 2.1484,0 2.1484,0.71615 0,0.26041 -0.3906,0.71614 -1.3672,1.49739 -7.0313,3.77603 -5.664,2.27864 -16.5364,4.49218 z m -17.4479,12.49997 q 0,2.99478 -7.4218,6.5104 -1.7579,0.84635 -5.0782,1.6927 -2.9296,0.78125 -3.776,0.78125 -1.6927,0 -1.6927,-1.04166 0,-1.04167 1.6927,-1.69271 3.7109,-1.43228 7.3568,-2.86457 4.2968,-1.82291 5.9244,-3.64583 1.1719,-1.30208 1.4323,-1.30208 1.5625,0 1.5625,1.5625 z m -66.6665,-90.68987 q 0,5.20832 -1.888,10.09112 -0.9765,2.60416 -4.2317,8.2682 l -1.1719,-0.65104 q 0.1953,-1.88801 0.3255,-4.36196 0.1953,-2.47396 0.1953,-3.32031 0,-6.77081 -1.1067,-18.88016 -1.0417,-12.17445 -2.5391,-25.39056 -0.9115,-8.00779 -2.0182,-16.3411 1.3021,-2.86458 2.9297,-6.184882 1.6927,-3.320304 3.1901,-6.249984 1.0416,7.421856 2.6041,20.312446 1.6276,12.89059 2.5391,23.24213 1.1718,12.89059 1.1718,19.4661 z m 6.0547,-76.627412 q 0,3.450512 -3.125,6.315088 -3.3854,3.124992 -8.0729,3.124992 h -10.8723 q -2.0183,0 -2.0183,2.92968 0,0.32552 0.1302,1.171872 0.065,0.781248 0,1.171872 -3.125,-3.190096 -3.125,-6.575504 0,-4.296864 4.948,-4.296864 h 1.5624 q 7.6823,-10.351536 15.2344,-10.351536 5.3385,0 5.3385,6.5104 z m -5.8593,-0.0651 q 0,-2.473952 -2.0834,-2.473952 -3.5807,0 -9.1145,6.380192 h 5.3385 q 5.8594,0 5.8594,-3.90624 z m -30.2083,64.713372 q 1.8229,0 2.4089,2.01822 3.5156,24.02338 3.5156,28.19004 0,10.15622 -6.9661,12.76038 -3.1901,1.10677 -6.9662,1.10677 h -1.8229 q -6.3802,0 -8.4635,-6.31509 -0.2604,-0.84635 -0.5208,-2.27864 -3.9714,3.90624 -8.4635,3.90624 h -0.9115 q -3.776,-0.39062 -4.9479,-0.39062 h -0.7813 q -7.2916,0 -15.7551,13.60673 -2.9297,5.07811 -4.7526,5.07811 -0.7162,-0.26041 -0.7162,-1.30208 0.6511,-6.6406 8.2031,-17.57808 5.8594,-7.35675 12.8255,-7.35675 h 0.9766 q 0.9115,0 5.8594,0.71615 h 0.1953 q 4.9479,0 6.901,-4.29687 0.065,-0.52083 0.065,-0.91145 -2.0833,-18.16402 -2.0833,-19.33589 v -0.32552 q 0,-2.73437 3.3203,-4.16666 l 0.9114,-0.0651 q 2.7344,0 2.7344,4.10155 2.7344,23.04682 3.3854,27.47389 0.9766,2.47395 3.4505,2.47395 5.4688,0 6.7708,-1.82291 0.7162,-1.10677 0.7162,-2.34375 v -0.39062 q 0,-5.72915 -2.9297,-25.58587 -0.3906,-1.36719 -0.3906,-2.27864 v -0.19531 q 0,-3.51562 3.9062,-4.49218 z m -14.095,-19.40099 q 0,3.19009 -1.888,5.66405 -2.0833,2.66926 -5.4036,2.66926 -1.237,0 -3.125,-1.43229 -1.1719,1.5625 -3.5807,2.86458 -2.4089,1.30208 -3.8412,1.30208 -1.302,0 -2.2786,-1.5625 -0.8464,-1.43229 -0.8464,-2.99478 0,-1.82291 0.7162,-3.64583 0.7812,-2.14843 2.0833,-2.14843 1.1719,0 1.4323,1.88802 0.065,1.04166 0.1302,2.14843 0.2604,0.45573 0.8464,0.45573 0.7161,0 1.888,-0.71615 1.4323,-0.84635 2.9948,-3.3203 1.302,-2.01822 2.0182,-2.01822 0.9114,0 0.9766,2.27864 0.1302,2.21353 1.3671,2.21353 0.9766,0 2.0834,-0.78125 1.1067,-0.78124 1.1067,-1.56249 0,-3.32031 1.8229,-3.32031 1.4974,0 1.4974,2.01823 z m 0.1953,-10.80727 q 0,2.99479 -7.4218,6.5104 -1.7578,0.84636 -5.0781,1.69271 -2.9297,0.78125 -3.7761,0.78125 -1.6927,0 -1.6927,-1.04167 0,-1.04166 1.6927,-1.6927 3.711,-1.43229 7.3568,-2.86458 4.2969,-1.82291 5.9245,-3.64582 1.1718,-1.30208 1.4323,-1.30208 1.5624,0 1.5624,1.56249 z m 0.033,-26.302008 q 0,3.450512 -4.5572,8.333312 -3.8412,4.101552 -6.3151,5.143216 -6.836,2.92968 -8.3333,2.92968 -2.0183,0 -2.0183,-1.17188 0,-1.36718 4.7526,-3.776024 11.3932,-5.53384 11.3932,-10.677056 0,-2.213536 -1.6276,-2.213536 -1.6927,0 -1.6927,1.432288 0,0.97656 1.4974,1.30208 1.5625,0.32552 1.5625,0.911456 0,3.190096 -2.2786,3.190096 -0.4558,0 -1.0417,-0.130208 -1.1068,-0.260416 -2.5391,-1.822912 -1.4322,-1.6276 -1.4322,-3.320304 0,-2.799472 2.3437,-4.687488 2.1484,-1.692704 4.6224,-1.692704 1.8229,0 3.6458,1.692704 2.0182,1.888016 2.0182,4.55728 z m -75.5859,68.489408 q 0,5.20832 -1.888,10.09112 -0.9766,2.60416 -4.2318,8.2682 l -1.1718,-0.65104 q 0.1953,-1.88801 0.3255,-4.36196 0.1953,-2.47396 0.1953,-3.32031 0,-6.77081 -1.1068,-18.88016 -1.0416,-12.17445 -2.539,-25.39056 -0.9115,-8.00779 -2.0183,-16.3411 1.3021,-2.86458 2.9297,-6.184878 1.6927,-3.320304 3.1901,-6.249984 1.0417,7.421852 2.6042,20.312442 1.6276,12.89059 2.539,23.24213 1.1719,12.89059 1.1719,19.4661 z m 6.0547,-76.627408 q 0,3.450512 -3.125,6.315088 -3.3854,3.124992 -8.0729,3.124992 h -10.8724 q -2.0182,0 -2.0182,2.92968 0,0.32552 0.1302,1.171872 0.065,0.781248 0,1.171872 -3.125,-3.190096 -3.125,-6.575504 0,-4.296864 4.9479,-4.296864 h 1.5625 q 7.6823,-10.351536 15.2343,-10.351536 5.3386,0 5.3386,6.5104 z m -5.8594,-0.0651 q 0,-2.473952 -2.0833,-2.473952 -3.5807,0 -9.1146,6.380192 h 5.3386 q 5.8593,0 5.8593,-3.90624 z m -28.7107,49.218628 q 2.5391,0 2.5391,5.01301 3.5807,40.69 3.5807,43.68478 0,9.24477 -13.151,12.36976 -4.6875,1.49739 -8.7891,1.49739 -8.4635,0 -11.3932,-5.85936 -1.5625,-4.10155 -2.1484,-4.10155 -1.4974,0 -3.7109,3.71093 -3.711,4.55728 -6.3802,7.42185 -7.2266,4.62239 -24.2838,4.62239 h -3.8411 q -3.5808,-0.26042 -3.5808,-1.82291 v -0.39063 q 0,-3.19009 11.5234,-4.03645 7.487,-1.04166 12.8906,-3.19009 3.125,-1.49739 4.9479,-3.58072 5.1433,-6.90103 8.5938,-10.22133 2.3437,-1.82291 4.1015,-1.82291 h 0.4557 q 3.3204,0 6.5104,7.16144 2.7995,4.36197 6.5104,4.36197 4.948,0 11.263,-2.92968 2.6693,-1.6276 2.6693,-4.10156 -3.4505,-41.73166 -3.4505,-43.16395 0,-2.99478 4.1015,-4.62238 z m -32.2265,20.76817 -2.2135,3.58072 q -1.1719,1.88802 -3.1901,1.88802 -1.6276,0 -2.8646,-1.10677 -1.237,-1.17187 -1.237,-2.79947 0,-1.04166 0.6511,-2.14843 l 2.2135,-3.58072 q 1.1719,-1.88802 3.1901,-1.88802 1.6276,0 2.8646,1.17187 1.237,1.10677 1.237,2.73437 0,1.04167 -0.6511,2.14843 z m 9.4725,-40.16916 q 0,3.19009 -1.888,5.66404 -2.0833,2.66927 -5.4037,2.66927 -1.2369,0 -3.1249,-1.43229 -1.1719,1.5625 -3.5808,2.86458 -2.4088,1.30208 -3.8411,1.30208 -1.3021,0 -2.2786,-1.5625 -0.8464,-1.43229 -0.8464,-2.99478 0,-1.82292 0.7162,-3.64583 0.7812,-2.14843 2.0833,-2.14843 1.1719,0 1.4323,1.88802 0.065,1.04166 0.1302,2.14843 0.2604,0.45573 0.8463,0.45573 0.7162,0 1.888,-0.71615 1.4323,-0.84635 2.9948,-3.3203 1.3021,-2.01823 2.0183,-2.01823 0.9114,0 0.9765,2.27864 0.1302,2.21354 1.3672,2.21354 0.9766,0 2.0833,-0.78125 1.1068,-0.78125 1.1068,-1.56249 0,-3.32031 1.8229,-3.32031 1.4974,0 1.4974,2.01823 z m 0.1953,-10.80727 q 0,2.99479 -7.4218,6.5104 -1.7579,0.84635 -5.0782,1.69271 -2.9296,0.78124 -3.776,0.78124 -1.6927,0 -1.6927,-1.04166 0,-1.04166 1.6927,-1.6927 3.7109,-1.43229 7.3568,-2.86458 4.2968,-1.822914 5.9244,-3.645826 1.1719,-1.30208 1.4323,-1.30208 1.5625,0 1.5625,1.562496 z m -1.595,120.70282 q 0,2.99478 -7.4219,6.5104 -1.7578,0.84635 -5.0781,1.6927 -2.9296,0.78125 -3.776,0.78125 -1.6927,0 -1.6927,-1.04166 0,-1.04167 1.6927,-1.69271 3.7109,-1.43229 7.3568,-2.86457 4.2968,-1.82292 5.9244,-3.64583 1.1719,-1.30208 1.4323,-1.30208 1.5625,0 1.5625,1.5625 z m -47.3958,-38.47647 q -5.3385,8.85415 -18.0338,8.85415 -3.9062,0 -3.9062,-3.90624 0,-3.90624 3.9062,-3.90624 8.138,0 14.3229,-5.46874 1.6276,-1.43229 2.9297,-1.43229 1.888,0 1.888,2.40885 0,1.5625 -1.1068,3.45051 z m 0.7162,23.69786 q -5.4687,2.34374 -13.151,2.34374 -6.9661,0 -6.9661,-2.92968 0,-2.08332 5.9244,-2.99478 4.0365,-0.58594 11.1328,-3.58072 0.8464,-0.39062 1.6927,-0.39062 3.776,0 3.776,4.10155 0,2.47395 -2.4088,3.45051 z m -20.117,-14.84371 q -2.7995,0 -5.5338,-0.84635 0.1302,1.17187 0.1302,2.27864 0,14.90881 -19.7265,23.04681 -15.0391,6.24999 -32.2916,6.24999 -17.2526,0 -28.776,-6.4453 -11.914,-6.64061 -11.914,-17.05725 0,-11.3932 15.3645,-18.42443 14.1276,-6.38019 34.1796,-6.38019 2.4089,0 4.8828,0.13021 9.8307,0.45572 9.8307,2.60416 0,2.01822 -9.9609,2.53905 -21.2239,1.17187 -34.1145,6.77082 -12.3698,5.40363 -12.3698,12.76038 0,5.59895 7.6823,10.15623 9.375,5.53384 25.1953,5.53384 13.2161,0 26.4973,-4.55728 17.7083,-6.18488 17.7083,-16.99215 0,-4.10155 -3.5156,-10.48174 -0.7162,-1.23698 -0.7162,-2.47395 0,-3.71093 3.6458,-3.71093 1.823,0 3.3204,1.6276 5.5338,5.85936 10.4817,5.85936 3.9062,0 3.9062,3.90624 0,3.90624 -3.9062,3.90624 z m -21.1588,-32.22648 -2.2135,3.58072 q -1.1719,1.88801 -3.1901,1.88801 -1.6276,0 -2.8646,-1.10676 -1.237,-1.17188 -1.237,-2.79948 0,-1.04166 0.6511,-2.14843 l 2.2135,-3.58072 q 1.1719,-1.88801 3.1901,-1.88801 1.6276,0 2.8646,1.17187 1.2369,1.10677 1.2369,2.73437 0,1.04166 -0.651,2.14843 z M 1425.2662,131.836 q 0,2.99478 -7.4219,6.5104 -1.7578,0.84635 -5.0781,1.6927 -2.9297,0.78125 -3.776,0.78125 -1.6927,0 -1.6927,-1.04167 0,-1.04166 1.6927,-1.6927 3.7109,-1.43229 7.3567,-2.86458 4.2969,-1.82291 5.9245,-3.64582 1.1719,-1.30208 1.4323,-1.30208 1.5625,0 1.5625,1.5625 z m -102.4742,48.2095 q 0,4.62238 -6.7708,7.94269 -5.7292,2.79947 -10.8724,2.79947 -2.6692,0 -2.6692,-1.36719 0,-1.30208 2.539,-1.6276 2.3438,-0.26041 6.7057,-2.53905 4.8177,-2.60416 5.7292,-4.62239 l -0.1302,-0.0651 q -3.3203,-1.36718 -3.9714,-1.82291 -1.9531,-1.30208 -1.9531,-3.64583 0,-4.10155 4.1667,-7.87758 3.7109,-3.3203 6.7057,-3.3203 2.6041,0 2.6041,2.60416 0,2.60416 -2.6041,2.60416 -0.9115,0 -2.9948,1.88801 -2.3437,2.01823 -2.6042,3.71093 3.6459,1.49739 4.0365,1.75781 2.0833,1.30208 2.0833,3.58072 z m 5.2736,-41.37359 q 0,2.99478 -7.4219,6.5104 -1.7578,0.84635 -5.0781,1.6927 -2.9297,0.78125 -3.776,0.78125 -1.6927,0 -1.6927,-1.04167 0,-1.04166 1.6927,-1.6927 3.7109,-1.43229 7.3567,-2.86458 4.2969,-1.82291 5.9245,-3.64582 1.1719,-1.30208 1.4323,-1.30208 1.5625,0 1.5625,1.5625 z m -29.4921,33.62621 q 0.1302,1.43229 0.1302,2.79947 0,8.65884 -2.7995,8.65884 -2.0833,0 -3.4505,-6.70572 -0.7161,-3.58072 -2.2135,-16.47131 -0.9766,-8.46352 -2.2136,-21.35411 v -0.45573 q 0,-2.92968 1.4974,-4.9479 1.4323,-1.95312 3.2552,-1.95312 2.2136,0 2.474,2.92968 1.237,13.15101 3.3203,37.4999 z m -17.2527,-4.81769 q -0.3906,4.62238 -4.5573,7.55206 -6.3151,4.42707 -20.3775,8.78904 -14.0625,4.29686 -22.4609,4.29686 -3.9063,0 -3.9063,-3.90624 0,-3.90624 3.9063,-3.90624 4.9479,0 13.5416,-2.08332 9.8307,-2.40885 15.625,-5.72916 -0.1953,-1.10676 -0.1953,-2.27864 0,-3.45051 1.9531,-7.09633 1.237,-2.27864 4.2969,-2.40885 h 0.651 q 1.0417,0 2.2786,0.13021 9.2448,1.04166 9.2448,6.18488 z m -14.1927,-30.40357 q 0,2.99478 -7.4219,6.5104 -1.7578,0.84635 -5.0781,1.6927 -2.9297,0.78125 -3.776,0.78125 -1.6927,0 -1.6927,-1.04166 0,-1.04167 1.6927,-1.69271 3.7109,-1.43229 7.3567,-2.86457 4.2969,-1.82292 5.9245,-3.64583 1.1719,-1.30208 1.4323,-1.30208 1.5625,0 1.5625,1.5625 z m -34.2446,51.43216 q -8.2682,0 -11.9141,-5.79426 -8.0729,5.79426 -16.5364,5.79426 -3.9062,0 -3.9062,-3.90624 0,-3.90624 3.9062,-3.90624 8.8542,0 16.5364,-8.39842 1.5625,-1.75781 3.4505,-1.75781 3.4506,0 3.4506,3.71093 0,0.58594 -0.2605,1.49739 -0.2604,0.84636 -0.2604,1.30208 0,3.64583 5.5339,3.64583 3.9062,0 3.9062,3.90624 0,3.90624 -3.9062,3.90624 z m -7.7474,-39.0624 -2.2135,3.58072 q -1.1719,1.88801 -3.1901,1.88801 -1.6276,0 -2.8646,-1.10676 -1.237,-1.17188 -1.237,-2.79948 0,-1.04166 0.651,-2.14843 l 2.2136,-3.58072 q 1.1719,-1.88801 3.1901,-1.88801 1.6276,0 2.8646,1.17187 1.2369,1.10677 1.2369,2.73437 0,1.04166 -0.651,2.14843 z m 4.655,-37.59756 q 0,3.45051 -4.5573,8.33331 -3.8411,4.10155 -6.3151,5.14322 -6.8359,2.92968 -8.3333,2.92968 -2.0182,0 -2.0182,-1.17188 0,-1.36718 4.7526,-3.77603 11.3932,-5.53384 11.3932,-10.67705 0,-2.21354 -1.6276,-2.21354 -1.6927,0 -1.6927,1.43229 0,0.97656 1.4974,1.30208 1.5625,0.32552 1.5625,0.91145 0,3.1901 -2.2787,3.1901 -0.4557,0 -1.0417,-0.13021 -1.1067,-0.26041 -2.539,-1.82291 -1.4323,-1.6276 -1.4323,-3.3203 0,-2.79948 2.3437,-4.68749 2.1485,-1.69271 4.6224,-1.69271 1.8229,0 3.6459,1.69271 2.0182,1.88801 2.0182,4.55728 z m -21.7773,72.68861 q 0,3.84114 -3.8411,3.84114 h -4.0365 q -3.8411,0 -3.8411,-3.84114 0,-3.77603 3.8411,-3.77603 h 4.0365 q 3.8411,0 3.8411,3.77603 z m -8.5286,-3.90624 q 1.8229,4.23176 1.8229,7.74738 0,12.49997 -19.7265,19.4661 -12.1745,4.29686 -23.8281,4.29686 -3.3203,0 -5.7942,-0.78125 -2.474,-0.78125 -2.474,-1.6927 0,-1.69271 4.362,-2.47395 15.1041,-2.86458 21.0286,-5.01301 18.815,-6.77082 18.815,-11.97914 0,-1.6276 -1.5625,-1.6276 -9.9609,0 -9.9609,-5.07811 0,-3.58072 2.7344,-6.70571 2.7994,-3.12499 6.7708,-3.12499 4.6875,0 7.8125,6.96612 z m -39.1927,-8.33331 q 0.1302,1.43229 0.1302,2.79947 0,8.65884 -2.7995,8.65884 -2.0833,0 -3.4505,-6.70572 -0.7161,-3.58072 -2.2135,-16.47131 -0.9766,-8.46352 -2.2136,-21.35411 v -0.45573 q 0,-2.92968 1.4974,-4.9479 1.4323,-1.95312 3.2552,-1.95312 2.2136,0 2.474,2.92968 1.2369,13.15101 3.3203,37.4999 z m -6.7382,-63.5415 q 1.4323,0 2.4088,0.71614 1.0417,0.71615 1.6927,1.82291 0.6511,1.10677 0.9115,2.47396 0.2604,1.30208 0.2604,2.53905 0,0.97656 -0.5208,2.21354 -0.4558,1.23697 -1.3021,2.40885 -0.7813,1.10676 -1.888,1.88801 -1.1068,0.71615 -2.3438,0.71615 -2.0833,0 -3.5156,-1.23698 -1.4323,-1.23698 -1.4323,-3.45051 0,-0.91146 0.5208,-2.60416 0.586,-1.69271 1.4323,-3.32031 0.8464,-1.6927 1.8229,-2.92968 1.0417,-1.23697 1.9532,-1.23697 z m -3.7761,8.00779 q 0.1302,0.78125 0.7162,1.75781 0.5859,0.91145 2.2135,0.91145 1.7578,0 2.8646,-0.84635 1.1719,-0.91145 1.6927,-2.08333 -0.1302,-0.26041 -0.5208,-0.91145 -0.3907,-0.65104 -0.9766,-1.30208 -0.5859,-0.65104 -1.3672,-1.10677 -0.7812,-0.52083 -1.6276,-0.52083 -0.7161,0 -1.237,0.52083 -0.4557,0.45573 -0.8463,1.17187 -0.3255,0.65104 -0.5859,1.36719 -0.1954,0.65104 -0.3256,1.04166 z m -33.6262,50.71602 q -0.3906,4.62238 -4.5573,7.55206 -6.3151,4.42707 -20.3776,8.78904 -14.0624,4.29686 -22.4608,4.29686 -3.9063,0 -3.9063,-3.90624 0,-3.90624 3.9063,-3.90624 4.9479,0 13.5416,-2.08332 9.8307,-2.40885 15.625,-5.72916 -0.1954,-1.10676 -0.1954,-2.27864 0,-3.45051 1.9532,-7.09633 1.2369,-2.27864 4.2968,-2.40885 h 0.6511 q 1.0416,0 2.2786,0.13021 9.2448,1.04166 9.2448,6.18488 z m -14.1927,50.65091 q 0,2.99478 -7.4219,6.5104 -1.7578,0.84635 -5.0781,1.6927 -2.9297,0.78125 -3.776,0.78125 -1.6927,0 -1.6927,-1.04166 0,-1.04167 1.6927,-1.69271 3.7109,-1.43229 7.3567,-2.86457 4.2969,-1.82292 5.9245,-3.64583 1.1718,-1.30208 1.4323,-1.30208 1.5625,0 1.5625,1.5625 z m -34.2447,-29.62232 q -8.2682,0 -11.914,-5.79426 -8.0729,5.79426 -16.5365,5.79426 -3.9062,0 -3.9062,-3.90624 0,-3.90624 3.9062,-3.90624 8.8542,0 16.5365,-8.39842 1.5624,-1.75781 3.4505,-1.75781 3.4505,0 3.4505,3.71093 0,0.58594 -0.2604,1.49739 -0.2605,0.84636 -0.2605,1.30208 0,3.64583 5.5339,3.64583 3.9062,0 3.9062,3.90624 0,3.90624 -3.9062,3.90624 z m -7.7474,-39.0624 -2.2135,3.58072 q -1.1719,1.88801 -3.1901,1.88801 -1.6276,0 -2.8646,-1.10676 -1.237,-1.17188 -1.237,-2.79948 0,-1.04166 0.6511,-2.14843 l 2.2135,-3.58072 q 1.1719,-1.88801 3.1901,-1.88801 1.6276,0 2.8646,1.17187 1.2369,1.10677 1.2369,2.73437 0,1.04166 -0.651,2.14843 z m -3.6458,-53.320178 q 3.3203,0 3.3203,3.320308 0,3.3854 -12.8255,14.97392 -9.0495,7.03123 -15.9505,10.15622 -7.0963,3.51562 -9.1797,3.51562 -1.1067,0 -1.4974,-0.84636 v -0.78124 q 0,-1.5625 3.9714,-4.03645 9.1145,-5.72915 20.1822,-15.29944 6.3802,-6.38019 9.6354,-10.481746 1.3021,-0.520832 2.3438,-0.520832 z m -37.9557,35.481678 q 3.3203,0 3.3203,5.79426 1.4974,18.09891 4.1667,41.99208 0.9765,1.30208 4.8177,1.30208 h 8.8541 q 0.3255,0.0651 0.3255,0.39062 v 6.77082 q 0,0.39062 -0.3255,0.39062 h -8.5286 q -9.2448,0 -11.4583,-4.68749 -1.3672,0 -3.1901,-21.80984 -13.802,3.32031 -19.98691,8.78904 3.3203,1.10677 3.3203,3.51562 v 1.49739 q 0,6.64061 -5.79426,8.65883 -7.68227,3.97135 -18.68484,6.70572 -2.40885,0 -6.64061,3.97134 -2.01823,3.12499 -2.01823,5.98957 v 0.97656 q 0,5.40363 6.31509,20.70307 1.36719,6.11978 1.36719,10.93747 -0.45573,8.33331 -2.01823,8.33331 h -0.84635 q -0.97656,-0.58593 -0.97656,-1.95312 v -0.84635 q 0,-7.09633 -8.138,-26.82285 -3.1901,-9.11456 -3.1901,-12.49996 0,-9.30988 10.48175,-14.45309 8.39841,-2.53906 12.30465,-4.68749 0,-10.87237 16.99215,-20.63797 5.79426,-2.86457 16.66666,-5.85936 -1.4974,-17.9687 -1.4974,-19.66141 0,-2.40884 3.1901,-2.79947 z m -9.1145,-60.221197 q 0,3.450512 -4.5573,8.333312 -3.8411,4.101552 -6.31504,5.143216 -6.83592,2.92968 -8.33331,2.92968 -2.01822,0 -2.01822,-1.171872 0,-1.367184 4.75259,-3.776032 11.39318,-5.53384 11.39318,-10.677056 0,-2.213536 -1.6276,-2.213536 -1.6927,0 -1.6927,1.432288 0,0.97656 1.4974,1.30208 1.5625,0.32552 1.5625,0.911456 0,3.190096 -2.2786,3.190096 -0.4558,0 -1.0417,-0.130208 -1.10677,-0.260416 -2.53906,-1.822912 -1.43228,-1.6276 -1.43228,-3.320304 0,-2.799472 2.34374,-4.687488 2.1484,-1.692704 4.6224,-1.692704 1.8229,0 3.6458,1.692704 2.0182,1.888016 2.0182,4.55728 z M 997.23954,45.215114 q 0.65104,0 1.6927,0.130208 1.04167,0.0651 2.08336,0.195312 1.1067,0.0651 1.9531,0.130208 0.9114,0.0651 1.237,0.0651 1.0416,0.0651 1.0416,1.171872 0,0.520832 -0.5859,1.692704 -0.5208,1.106768 -1.237,2.343744 -0.7161,1.236976 -1.4974,2.343744 -0.7812,1.041664 -1.1719,1.367184 -0.4557,0.32552 -1.49734,0.716144 -1.04166,0.32552 -2.27864,0.65104 -1.17187,0.32552 -2.27864,0.585936 -1.10677,0.195312 -1.6927,0.195312 l -0.39063,-0.130208 q 0,-0.390624 0.97656,-0.846352 0.97656,-0.455728 2.40885,-1.171872 1.43229,-0.716144 2.92968,-1.822912 1.56246,-1.106768 2.66926,-2.799472 -1.1719,-0.260416 -3.05988,-0.32552 -1.88802,-0.130208 -3.58072,-0.130208 -0.45573,0 -0.91146,0.32552 -0.45573,0.260416 -0.84635,0.585936 -0.32552,0.32552 -1.04166,0.911456 l -0.13021,-0.32552 q 0,-0.585936 0.39062,-1.562496 0.45573,-0.97656 1.17187,-1.95312 0.78125,-0.97656 1.69271,-1.6276 0.97656,-0.716144 1.95312,-0.716144 z M 930.08475,175.94395 q 0,12.56507 -19.5312,19.46609 -11.58851,4.10155 -23.56764,4.10155 -3.38541,0 -5.92447,-0.84635 -2.53905,-0.78125 -2.53905,-1.6927 0,-1.69271 4.49217,-2.53906 15.42965,-2.92968 20.70307,-4.81769 18.55464,-6.64061 18.55464,-11.91404 0,-1.7578 -1.10676,-1.7578 -0.26042,0 -0.52084,0.0651 -1.49739,0.39062 -3.12499,0.39062 -7.09633,0 -7.09633,-5.46873 0,-3.64583 2.79947,-6.83592 2.86457,-3.2552 6.96613,-3.2552 3.77603,0 6.96612,5.20832 2.92968,4.8828 2.92968,9.89581 z m -12.6953,-38.80199 q 0,2.99479 -7.42186,6.5104 -1.75781,0.84635 -5.07811,1.69271 -2.92968,0.78124 -3.77603,0.78124 -1.69271,0 -1.69271,-1.04166 0,-1.04166 1.69271,-1.6927 3.71092,-1.43229 7.35675,-2.86458 4.29686,-1.82291 5.92446,-3.64582 1.17187,-1.30208 1.43229,-1.30208 1.5625,0 1.5625,1.56249 z m -37.3046,17.96871 q 0,5.20832 -1.88801,10.09112 -0.97656,2.60416 -4.23176,8.2682 l -1.17188,-0.65104 q 0.19532,-1.88801 0.32552,-4.36196 0.19532,-2.47396 0.19532,-3.32031 0,-6.77081 -1.10677,-18.88016 -1.04167,-12.17445 -2.53906,-25.39056 -0.91145,-8.00779 -2.01822,-16.3411 1.30208,-2.86458 2.92968,-6.184882 1.6927,-3.320304 3.19009,-6.249984 1.04167,7.421856 2.60416,20.312446 1.6276,12.89059 2.53906,23.24213 1.17187,12.89059 1.17187,19.4661 z m 6.05467,-76.627412 q 0,3.450512 -3.12499,6.315088 -3.38541,3.124992 -8.07289,3.124992 h -10.87237 q -2.01823,0 -2.01823,2.92968 0,0.32552 0.13021,1.171872 0.0651,0.781248 0,1.171872 -3.12499,-3.190096 -3.12499,-6.575504 0,-4.296864 4.9479,-4.296864 h 1.5625 q 7.68227,-10.351536 15.23434,-10.351536 5.33852,0 5.33852,6.5104 z m -5.85936,-0.0651 q 0,-2.473952 -2.08332,-2.473952 -3.58072,0 -9.11456,6.380192 h 5.33852 q 5.85936,0 5.85936,-3.90624 z m -28.71082,49.218622 q 2.53906,0 2.53906,5.01301 3.58072,40.69 3.58072,43.68478 0,9.24477 -13.15101,12.36976 -4.68749,1.49739 -8.78904,1.49739 -8.46352,0 -11.3932,-5.85936 -1.5625,-4.10155 -2.14843,-4.10155 -1.4974,0 -3.71093,3.71093 -3.71093,4.55728 -6.38019,7.42185 -7.22655,4.62239 -24.2838,4.62239 h -3.84113 q -3.58072,-0.26042 -3.58072,-1.82291 v -0.39063 q 0,-3.19009 11.52341,-4.03645 7.48696,-1.04166 12.89059,-3.19009 3.12499,-1.49739 4.9479,-3.58072 5.14322,-6.90103 8.59373,-10.22133 2.34374,-1.82291 4.10155,-1.82291 h 0.45573 q 3.3203,0 6.5104,7.16144 2.79947,4.36197 6.5104,4.36197 4.9479,0 11.26299,-2.92968 2.66927,-1.6276 2.66927,-4.10156 -3.45052,-41.73166 -3.45052,-43.16395 0,-2.99478 4.10156,-4.62238 z m -32.22648,20.76817 -2.21354,3.58072 q -1.17187,1.88802 -3.19009,1.88802 -1.6276,0 -2.86458,-1.10677 -1.23697,-1.17187 -1.23697,-2.79947 0,-1.04166 0.65104,-2.14843 l 2.21353,-3.58072 q 1.17187,-1.88802 3.1901,-1.88802 1.6276,0 2.86457,1.17187 1.23698,1.10677 1.23698,2.73437 0,1.04167 -0.65104,2.14843 z m 9.47265,-40.16916 q 0,3.19009 -1.88802,5.66404 -2.08332,2.66927 -5.40363,2.66927 -1.23697,0 -3.12499,-1.43229 -1.17187,1.5625 -3.58072,2.86458 -2.40885,1.30208 -3.84114,1.30208 -1.30208,0 -2.27864,-1.5625 -0.84635,-1.43229 -0.84635,-2.99478 0,-1.82292 0.71615,-3.64583 0.78124,-2.14843 2.08332,-2.14843 1.17188,0 1.43229,1.88802 0.0651,1.04166 0.13021,2.14843 0.26042,0.45573 0.84635,0.45573 0.71615,0 1.88802,-0.71615 1.43229,-0.84635 2.99478,-3.3203 1.30208,-2.01823 2.01823,-2.01823 0.91145,0 0.97656,2.27864 0.1302,2.21354 1.36718,2.21354 0.97656,0 2.08333,-0.78125 1.10677,-0.78125 1.10677,-1.56249 0,-3.32031 1.82291,-3.32031 1.49739,0 1.49739,2.01823 z m 0.19531,-10.807264 q 0,2.994784 -7.42185,6.510394 -1.75781,0.84635 -5.07812,1.69271 -2.92968,0.78124 -3.77603,0.78124 -1.6927,0 -1.6927,-1.04166 0,-1.04166 1.6927,-1.6927 3.71093,-1.43229 7.35675,-2.86458 4.29687,-1.822908 5.92447,-3.64582 1.17187,-1.30208 1.43229,-1.30208 1.56249,0 1.56249,1.562496 z m -1.59507,120.702814 q 0,2.99478 -7.42185,6.5104 -1.75781,0.84635 -5.07812,1.6927 -2.92968,0.78125 -3.77603,0.78125 -1.6927,0 -1.6927,-1.04166 0,-1.04167 1.6927,-1.69271 3.71093,-1.43229 7.35675,-2.86457 4.29687,-1.82292 5.92447,-3.64583 1.17187,-1.30208 1.43229,-1.30208 1.56249,0 1.56249,1.5625 z m -47.39569,-38.47647 q -5.33853,8.85415 -18.03381,8.85415 -3.90624,0 -3.90624,-3.90624 0,-3.90624 3.90624,-3.90624 8.138,0 14.32288,-5.46874 1.6276,-1.43229 2.92968,-1.43229 1.88802,0 1.88802,2.40885 0,1.5625 -1.10677,3.45051 z m 0.71615,23.69786 q -5.46874,2.34374 -13.15101,2.34374 -6.96613,0 -6.96613,-2.92968 0,-2.08332 5.92446,-2.99478 4.03645,-0.58594 11.13279,-3.58072 0.84635,-0.39062 1.6927,-0.39062 3.77603,0 3.77603,4.10155 0,2.47395 -2.40884,3.45051 z m -20.11712,-14.84371 q -2.79947,0 -5.53384,-0.84635 0.13021,1.17187 0.13021,2.27864 0,14.90881 -19.72652,23.04681 -15.03902,6.24999 -32.29158,6.24999 -17.25256,0 -28.77597,-6.4453 -11.91403,-6.64061 -11.91403,-17.05725 0,-11.3932 15.36454,-18.42443 14.12757,-6.38019 34.1796,-6.38019 2.40885,0 4.8828,0.13021 9.83071,0.45572 9.83071,2.60416 0,2.01822 -9.96091,2.53905 -21.22391,1.17187 -34.1145,6.77082 -12.36976,5.40363 -12.36976,12.76038 0,5.59895 7.68227,10.15623 9.37498,5.53384 25.19525,5.53384 13.21611,0 26.49733,-4.55728 17.70829,-6.18488 17.70829,-16.99215 0,-4.10155 -3.51562,-10.48174 -0.71614,-1.23698 -0.71614,-2.47395 0,-3.71093 3.64582,-3.71093 1.82291,0 3.3203,1.6276 5.53384,5.85936 10.48175,5.85936 3.90624,0 3.90624,3.90624 0,3.90624 -3.90624,3.90624 z m -21.1588,-32.22648 -2.21354,3.58072 q -1.17187,1.88801 -3.19009,1.88801 -1.6276,0 -2.86458,-1.10676 -1.23698,-1.17188 -1.23698,-2.79948 0,-1.04166 0.65104,-2.14843 l 2.21354,-3.58072 q 1.17187,-1.88801 3.1901,-1.88801 1.6276,0 2.86457,1.17187 1.23698,1.10677 1.23698,2.73437 0,1.04166 -0.65104,2.14843 z m -20.57292,-24.44655 q 0,2.99478 -7.42185,6.5104 -1.75781,0.84635 -5.07812,1.6927 -2.92968,0.78125 -3.77603,0.78125 -1.6927,0 -1.6927,-1.04167 0,-1.04166 1.6927,-1.6927 3.71093,-1.43229 7.35675,-2.86458 4.29687,-1.82291 5.92447,-3.64582 1.17187,-1.30208 1.43229,-1.30208 1.56249,0 1.56249,1.5625 z m -90.8201,40.46213 q 0.13021,1.43229 0.13021,2.79947 0,8.65884 -2.79948,8.65884 -2.08332,0 -3.45051,-6.70572 -0.71614,-3.58072 -2.21353,-16.47131 -0.97656,-8.46352 -2.21354,-21.35411 v -0.45573 q 0,-2.92968 1.49739,-4.9479 1.43229,-1.95312 3.2552,-1.95312 2.21354,0 2.47395,2.92968 1.23698,13.15101 3.32031,37.4999 z m 2.01822,-53.97121 q 0,3.77603 -4.10155,7.09633 -4.03645,3.2552 -7.87758,3.2552 -2.14844,0 -2.14844,-2.01822 0,-1.6276 1.75781,-2.27864 5.59895,-2.01823 6.77082,-5.20832 -4.75259,-1.17187 -4.75259,-3.97135 0,-2.27864 2.27864,-5.14321 1.95312,-2.47395 4.29686,-3.90624 0.78125,-0.45573 1.6276,-0.45573 2.40885,0 2.40885,2.01822 0,1.04167 -1.10677,1.95312 -3.05989,2.40885 -3.97134,4.7526 2.79947,0.78124 3.2552,1.04166 1.56249,0.84635 1.56249,2.86458 z m 1.92062,-37.369696 q 0,3.450512 -4.55728,8.333312 -3.84113,4.101552 -6.31508,5.143216 -6.83592,2.92968 -8.33332,2.92968 -2.01822,0 -2.01822,-1.171872 0,-1.367184 4.75259,-3.776032 11.3932,-5.53384 11.3932,-10.677056 0,-2.213536 -1.6276,-2.213536 -1.6927,0 -1.6927,1.432288 0,0.97656 1.49739,1.30208 1.5625,0.32552 1.5625,0.911456 0,3.190096 -2.27864,3.190096 -0.45573,0 -1.04167,-0.130208 -1.10677,-0.260416 -2.53905,-1.822912 -1.43229,-1.6276 -1.43229,-3.320304 0,-2.799472 2.34374,-4.687488 2.14843,-1.692704 4.62239,-1.692704 1.82291,0 3.64582,1.692704 2.01822,1.888016 2.01822,4.55728 z m -21.19132,94.986736 q 0,12.56507 -19.5312,19.46609 -11.58851,4.10155 -23.56764,4.10155 -3.38541,0 -5.92447,-0.84635 -2.53905,-0.78125 -2.53905,-1.6927 0,-1.69271 4.49217,-2.53906 15.42965,-2.92968 20.70307,-4.81769 18.55464,-6.64061 18.55464,-11.91404 0,-1.7578 -1.10676,-1.7578 -0.26042,0 -0.52084,0.0651 -1.49739,0.39062 -3.12499,0.39062 -7.09633,0 -7.09633,-5.46873 0,-3.64583 2.79947,-6.83592 2.86457,-3.2552 6.96613,-3.2552 3.77603,0 6.96612,5.20832 2.92968,4.8828 2.92968,9.89581 z m -47.526,4.10155 q -3.05989,4.29686 -6.77082,6.18488 -0.78124,0.39062 -5.79425,2.08333 -0.52083,0.19531 -1.10677,0.19531 -1.49739,0 -2.60416,-1.23698 -1.17187,-1.30208 -1.17187,-2.86457 0,-2.47396 2.73437,-3.51562 4.9479,-1.82291 5.40363,-2.08333 2.66926,-1.36718 4.10155,-3.84113 0.45573,-0.84636 0.45573,-2.08333 0,-2.27864 -1.75781,-6.70571 -1.6276,-3.84114 -3.1901,-7.68228 -0.39062,-0.84635 -0.39062,-1.6927 0,-3.90624 4.23176,-3.90624 2.34374,0 3.58072,2.14843 3.71093,6.83592 3.71093,17.44787 0,5.46874 -1.43229,7.55207 z m 7.22654,-38.34626 q -5.46873,2.34375 -13.151,2.34375 -6.96613,0 -6.96613,-2.92968 0,-2.08333 5.92446,-2.99479 4.03645,-0.58593 11.13279,-3.58072 0.84635,-0.39062 1.6927,-0.39062 3.77603,0 3.77603,4.10155 0,2.47395 -2.40885,3.45051 z m -2.05072,-34.47257 q 0,3.45052 -4.55728,8.33332 -3.84113,4.10155 -6.31509,5.14321 -6.83592,2.92968 -8.33331,2.92968 -2.01822,0 -2.01822,-1.17187 0,-1.36718 4.75259,-3.77603 11.3932,-5.53384 11.3932,-10.67706 0,-2.21353 -1.6276,-2.21353 -1.6927,0 -1.6927,1.43228 0,0.97656 1.49739,1.30208 1.56249,0.32552 1.56249,0.91146 0,3.1901 -2.27864,3.1901 -0.45572,0 -1.04166,-0.13021 -1.10677,-0.26042 -2.53906,-1.82291 -1.43229,-1.6276 -1.43229,-3.32031 0,-2.79947 2.34375,-4.68749 2.14843,-1.6927 4.62238,-1.6927 1.82292,0 3.64583,1.6927 2.01822,1.88802 2.01822,4.55728 z m -15.5924,77.311 q 0,3.84114 -3.84114,3.84114 h -4.03645 q -3.84113,0 -3.84113,-3.84114 0,-3.77603 3.84113,-3.77603 h 4.03645 q 3.84114,0 3.84114,3.77603 z m -8.52863,-3.90624 q 1.82291,4.23176 1.82291,7.74738 0,12.49997 -19.72651,19.4661 -12.17445,4.29686 -23.82806,4.29686 -3.32031,0 -5.79426,-0.78125 -2.47395,-0.78125 -2.47395,-1.6927 0,-1.69271 4.36197,-2.47395 15.10413,-2.86458 21.02859,-5.01301 18.81506,-6.77082 18.81506,-11.97914 0,-1.6276 -1.5625,-1.6276 -9.96091,0 -9.96091,-5.07811 0,-3.58072 2.73437,-6.70571 2.79947,-3.12499 6.77081,-3.12499 4.68749,0 7.81248,6.96612 z m -39.19263,-8.33331 q 0.1302,1.43229 0.1302,2.79947 0,8.65884 -2.79947,8.65884 -2.08333,0 -3.45051,-6.70572 -0.71614,-3.58072 -2.21354,-16.47131 -0.97656,-8.46352 -2.21353,-21.35411 v -0.45573 q 0,-2.92968 1.49739,-4.9479 1.43229,-1.95312 3.2552,-1.95312 2.21354,0 2.47395,2.92968 1.23698,13.15101 3.32031,37.4999 z m -6.73828,-63.5415 q 1.43229,0 2.40885,0.71614 1.04166,0.71615 1.6927,1.82291 0.65104,1.10677 0.91146,2.47396 0.26042,1.30208 0.26042,2.53905 0,0.97656 -0.52084,2.21354 -0.45572,1.23697 -1.30208,2.40885 -0.78124,1.10676 -1.88801,1.88801 -1.10677,0.71615 -2.34375,0.71615 -2.08332,0 -3.51561,-1.23698 -1.43229,-1.23698 -1.43229,-3.45051 0,-0.91146 0.52083,-2.60416 0.58594,-1.69271 1.43229,-3.32031 0.84635,-1.6927 1.82291,-2.92968 1.04167,-1.23697 1.95312,-1.23697 z m -3.77603,8.00779 q 0.13021,0.78125 0.71614,1.75781 0.58594,0.91145 2.21354,0.91145 1.75781,0 2.86458,-0.84635 1.17187,-0.91145 1.6927,-2.08333 -0.13021,-0.26041 -0.52083,-0.91145 -0.39063,-0.65104 -0.97656,-1.30208 -0.58594,-0.65104 -1.36719,-1.10677 -0.78124,-0.52083 -1.6276,-0.52083 -0.71614,0 -1.23697,0.52083 -0.45573,0.45573 -0.84635,1.17187 -0.32552,0.65104 -0.58594,1.36719 -0.19531,0.65104 -0.32552,1.04166 z m -38.18347,38.34626 q 0,5.20832 -1.88802,10.09112 -0.97656,2.60416 -4.23176,8.2682 l -1.17187,-0.65104 q 0.19531,-1.88801 0.32552,-4.36196 0.19531,-2.47396 0.19531,-3.32031 0,-6.77081 -1.10677,-18.88016 -1.04166,-12.17445 -2.53905,-25.39056 -0.91146,-8.00779 -2.01823,-16.3411 1.30208,-2.86458 2.92968,-6.184878 1.69271,-3.320304 3.1901,-6.249984 1.04166,7.421852 2.60416,20.312442 1.6276,12.89059 2.53906,23.24213 1.17187,12.89059 1.17187,19.4661 z m 6.05467,-76.627408 q 0,3.450512 -3.12499,6.315088 -3.38541,3.124992 -8.0729,3.124992 h -10.87237 q -2.01822,0 -2.01822,2.92968 0,0.32552 0.13021,1.171872 0.0651,0.781248 0,1.171872 -3.12499,-3.190096 -3.12499,-6.575504 0,-4.296864 4.9479,-4.296864 h 1.5625 q 7.68227,-10.351536 15.23433,-10.351536 5.33853,0 5.33853,6.5104 z m -5.85936,-0.0651 q 0,-2.473952 -2.08333,-2.473952 -3.58072,0 -9.11456,6.380192 h 5.33853 q 5.85936,0 5.85936,-3.90624 z m -22.9817,92.838308 q 0.13021,1.56249 0.13021,2.92968 0,8.07289 -8.52862,11.26299 -8.138,3.05989 -13.34632,3.05989 -3.90624,0 -3.90624,-3.90624 0,-3.90624 3.90624,-3.90624 4.55728,0 9.8307,-2.14843 2.99478,-1.23698 3.71093,-2.47396 0.52083,-0.97656 0.52083,-3.19009 0,-0.65104 -0.0651,-1.43229 -1.23698,-12.36976 -3.32031,-38.34626 v -0.52083 q 0,-2.01822 1.43229,-3.51561 1.6276,-1.69271 3.45051,-1.69271 2.34375,0 2.60416,2.73437 2.73437,33.07283 3.58072,41.14573 z m -11.8815,-63.80192 q 0.65104,0 1.69271,0.13021 1.04166,0.0651 2.08333,0.19531 1.10676,0.0651 1.95312,0.13021 0.91145,0.0651 1.23697,0.0651 1.04167,0.0651 1.04167,1.17187 0,0.52083 -0.58594,1.69271 -0.52083,1.10676 -1.23698,2.34374 -0.71614,1.23698 -1.49739,2.34374 -0.78125,1.04167 -1.17187,1.36719 -0.45573,0.32552 -1.49739,0.71614 -1.04167,0.32552 -2.27864,0.65104 -1.17187,0.32552 -2.27864,0.58594 -1.10677,0.19531 -1.69271,0.19531 l -0.39062,-0.13021 q 0,-0.39062 0.97656,-0.84635 0.97656,-0.45573 2.40885,-1.17187 1.43229,-0.71615 2.92968,-1.82291 1.56249,-1.10677 2.66926,-2.79948 -1.17187,-0.26041 -3.05989,-0.32552 -1.88801,-0.1302 -3.58072,-0.1302 -0.45572,0 -0.91145,0.32552 -0.45573,0.26041 -0.84635,0.58593 -0.32552,0.32552 -1.04167,0.91146 l -0.13021,-0.32552 q 0,-0.58594 0.39063,-1.5625 0.45573,-0.97656 1.17187,-1.95312 0.78125,-0.97656 1.6927,-1.6276 0.97656,-0.71614 1.95312,-0.71614 z m -10.38408,81.05448 q -11.84893,0 -17.7734,-4.29687 -8.65883,4.55728 -16.79683,4.55728 -1.88801,0 -3.71093,-0.26041 -3.90624,0 -3.90624,-3.90624 0,-3.90624 3.90624,-3.90624 1.82292,0.26041 3.64583,0.26041 5.72915,0 11.19789,-2.79947 -0.91146,-2.40885 -0.91146,-5.27342 v -0.71615 q 0.26042,-5.27342 3.05989,-8.59372 2.79947,-3.38541 6.83592,-3.38541 0.78125,0 1.6276,0.13021 8.91925,1.56249 8.91925,6.77081 0,1.5625 -0.78125,3.58072 -2.08333,5.40363 -6.38019,8.78904 2.92968,1.23698 11.06768,1.23698 3.90624,0 3.90624,3.90624 0,3.90624 -3.90624,3.90624 z m -9.89582,29.62232 q 0,2.99478 -7.42185,6.5104 -1.75781,0.84635 -5.07812,1.6927 -2.92968,0.78125 -3.77603,0.78125 -1.6927,0 -1.6927,-1.04166 0,-1.04167 1.6927,-1.69271 3.71093,-1.43229 7.35675,-2.86457 4.29687,-1.82292 5.92447,-3.64583 1.17187,-1.30208 1.43229,-1.30208 1.56249,0 1.56249,1.5625 z M 358.27635,127.8321 q 3.45051,0 3.45051,5.40363 2.47395,28.32024 4.62238,46.35405 0.91146,1.23698 3.64583,1.23698 h 1.6276 q 2.79947,0 3.64582,1.23697 v 4.68749 q 0,1.5625 -4.29686,1.5625 h -5.20832 q -1.88802,0 -4.16666,-2.73437 -2.34374,-2.40885 -2.60416,-4.8177 -1.04166,-7.09633 -2.60416,-23.24213 h -0.13021 q -5.85936,1.43229 -10.54685,3.38541 -5.07811,2.14843 -8.85414,5.07811 -0.0651,0 -0.0651,0.13021 1.88801,0.52083 2.92968,2.14843 0.45572,1.30208 0.45572,2.14844 0,6.24998 -3.77603,8.07289 -4.03645,2.34375 -11.84893,5.33853 -8.85414,2.14843 -12.04424,3.58072 -5.20832,3.38541 -5.20832,8.72394 v 0.91145 q 0,5.40363 5.92447,19.40099 1.56249,5.46874 1.56249,10.54685 v 2.21354 q -0.32552,7.42185 -2.01822,7.42185 h -0.32552 q -1.30208,-0.32552 -1.30208,-1.82291 v -0.58593 q 0,-7.42186 -7.09634,-24.47911 -3.97134,-10.41664 -3.97134,-14.38798 v -1.10677 q 0,-8.138 9.8307,-13.47653 1.23698,0 12.56508,-4.55728 0,-10.61195 15.42964,-19.72651 4.8177,-2.60416 13.0208,-5.20832 4.62239,-1.23698 4.7526,-1.23698 l -1.5625,-18.94526 q 0.39062,-3.2552 2.92968,-3.2552 z m -23.63279,-19.92182 q 0.65104,0 1.6927,0.1302 1.04167,0.0651 2.08333,0.19532 1.10677,0.0651 1.95312,0.1302 0.91146,0.0651 1.23698,0.0651 1.04166,0.0651 1.04166,1.17187 0,0.52083 -0.58593,1.6927 -0.52084,1.10677 -1.23698,2.34375 -0.71614,1.23697 -1.49739,2.34374 -0.78125,1.04167 -1.17187,1.36719 -0.45573,0.32552 -1.4974,0.71614 -1.04166,0.32552 -2.27864,0.65104 -1.17187,0.32552 -2.27864,0.58594 -1.10676,0.19531 -1.6927,0.19531 l -0.39062,-0.13021 q 0,-0.39062 0.97656,-0.84635 0.97656,-0.45573 2.40884,-1.17187 1.43229,-0.71615 2.92968,-1.82292 1.5625,-1.10676 2.66927,-2.79947 -1.17187,-0.26041 -3.05989,-0.32552 -1.88802,-0.13021 -3.58072,-0.13021 -0.45573,0 -0.91146,0.32552 -0.45572,0.26042 -0.84635,0.58594 -0.32552,0.32552 -1.04166,0.91146 l -0.13021,-0.32552 q 0,-0.58594 0.39062,-1.5625 0.45573,-0.97656 1.17188,-1.95312 0.78124,-0.97656 1.6927,-1.6276 0.97656,-0.71614 1.95312,-0.71614 z m 10.3841,-17.317668 q 0,2.994784 -7.42186,6.5104 -1.7578,0.846352 -5.07811,1.692704 -2.92968,0.781244 -3.77603,0.781244 -1.6927,0 -1.6927,-1.04166 0,-1.041664 1.6927,-1.692704 3.71093,-1.432288 7.35675,-2.864576 4.29687,-1.822912 5.92447,-3.645824 1.17187,-1.30208 1.43228,-1.30208 1.5625,0 1.5625,1.562496 z m -73.79538,89.583108 q 0,10.28643 -16.66662,15.16923 -13.21612,3.90624 -21.48432,3.90624 -2.66927,0 -4.62239,-1.04167 -1.95312,-1.04166 -1.95312,-2.34374 0,-3.51562 6.57551,-4.23176 9.17966,-1.04166 18.94526,-4.10155 11.91403,-3.71093 11.91403,-7.29165 0,-2.01822 -3.71093,-5.33853 -3.71092,-3.38541 -3.71092,-5.33853 0,-4.16665 3.3854,-4.16665 1.69271,0 6.05468,4.36197 5.27342,5.27342 5.27342,10.41664 z M 257.52789,139.4206 q 0,2.99479 -7.42186,6.5104 -1.7578,0.84635 -5.07811,1.69271 -2.92968,0.78124 -3.77603,0.78124 -1.6927,0 -1.6927,-1.04166 0,-1.04166 1.6927,-1.6927 3.71093,-1.43229 7.35675,-2.86458 4.29687,-1.82291 5.92447,-3.64582 1.17187,-1.30208 1.43228,-1.30208 1.5625,0 1.5625,1.56249 z m -33.56112,35.41658 q 0,2.21353 -2.21354,5.66405 -3.05988,4.81769 -9.11456,8.91924 -3.97134,2.73437 -10.93747,5.01301 -13.21611,4.42707 -21.1588,4.42707 -4.9479,0 -4.9479,-2.34374 0,-0.78125 1.04166,-1.36718 1.6276,-0.91146 10.61195,-3.77604 23.82807,-7.55206 27.73431,-15.29944 2.99478,-5.98956 4.55728,-5.98956 1.04166,0 2.73437,1.56249 1.6927,1.5625 1.6927,3.1901 z m -12.04424,-33.07283 q 0,2.99478 -7.42186,6.5104 -1.75781,0.84635 -5.07811,1.6927 -2.92968,0.78125 -3.77603,0.78125 -1.69271,0 -1.69271,-1.04167 0,-1.04166 1.69271,-1.6927 3.71093,-1.43229 7.35675,-2.86458 4.29686,-1.82291 5.92446,-3.64582 1.17188,-1.30208 1.43229,-1.30208 1.5625,0 1.5625,1.5625 z m -36.58845,35.74209 q -8.46352,2.99479 -26.88795,8.59373 -0.45573,1.43229 -1.17187,3.51562 -2.73437,7.09633 -4.68749,7.09633 -1.30208,0 -1.30208,-3.3203 0,-2.34375 0.78125,-5.66405 v -0.19531 q -5.20832,0.97656 -9.6354,0.97656 -3.90624,0 -3.90624,-3.90624 0,-3.90624 3.90624,-3.90624 4.8177,0 11.58852,-1.5625 5.53384,-22.20046 15.88537,-22.20046 4.68749,0 7.22655,3.19009 1.04166,1.23698 3.45051,6.70572 1.17187,2.66926 3.2552,2.66926 0.45573,0 1.17187,-0.19531 0.78125,-0.19531 1.17187,-0.19531 2.79947,0 2.79947,3.3203 0,4.03645 -3.64582,5.07811 z m -10.48174,-4.8828 q -0.19532,-0.19531 -2.21354,-4.42707 -1.5625,-3.45051 -2.73437,-3.45051 -3.84113,0 -8.39841,12.30465 4.23176,-1.23697 13.34632,-4.42707 z m -4.16666,27.40879 -2.21354,3.58072 q -1.17187,1.88801 -3.19009,1.88801 -1.6276,0 -2.86458,-1.17187 -1.23697,-1.10677 -1.23697,-2.73437 0,-1.04166 0.65104,-2.14843 l 2.21353,-3.58072 q 1.17187,-1.88802 3.1901,-1.88802 1.6276,0 2.86457,1.10677 1.23698,1.17187 1.23698,2.79947 0,1.04167 -0.65104,2.14844 z m 4.94791,-64.84359 q 0,2.99479 -7.42185,6.5104 -1.75781,0.84635 -5.07811,1.69271 -2.92968,0.78124 -3.77604,0.78124 -1.6927,0 -1.6927,-1.04166 0,-1.04166 1.6927,-1.6927 3.71093,-1.43229 7.35676,-2.86458 4.29686,-1.82291 5.92446,-3.64582 1.17187,-1.30208 1.43229,-1.30208 1.56249,0 1.56249,1.56249 z m -5.59894,-17.18745 q 0,2.73436 -0.45573,4.62238 -0.65104,2.66926 -1.6276,2.66926 -0.97656,0 -0.97656,-2.27864 0,-3.77603 -0.91145,-5.79425 -0.97656,-1.49739 -2.53906,-4.29687 -0.26041,-0.65104 -0.26041,-1.23697 0,-2.01823 1.7578,-2.01823 1.04167,0 2.08333,1.04167 2.92968,2.99478 2.92968,7.29165 z m -28.90618,70.50763 q -10.67705,0 -11.71872,-10.28643 -10.15622,5.20832 -23.111914,8.65883 -14.908816,4.03645 -27.6692,4.03645 -12.36976,0 -21.028592,-3.51562 -12.109344,-4.9479 -12.109344,-15.62496 0,-19.40099 51.301952,-24.86973 1.562496,-0.19531 2.799472,-0.19531 4.036448,0 4.036448,1.36718 0,1.88802 -6.83592,3.2552 -43.489472,8.52863 -43.489472,20.44266 0,6.24998 10.09112,9.24477 6.966128,2.08333 15.234336,2.08333 13.802048,0 29.687424,-4.8828 13.67184,-4.23176 21.94004,-9.6354 2.08333,-1.36718 3.32031,-1.36718 1.75781,0 2.21353,3.51562 0.78125,5.98956 0.91146,6.44529 1.10677,3.51562 4.42707,3.51562 3.90624,0 3.90624,3.90624 0,3.90624 -3.90624,3.90624 z m -10.28643,-38.73688 q -5.46874,2.34374 -13.15101,2.34374 -6.96613,0 -6.96613,-2.92968 0,-2.08333 5.92447,-2.99478 4.03645,-0.58594 11.13278,-3.58072 0.84635,-0.39063 1.69271,-0.39063 3.77603,0 3.77603,4.10156 0,2.47395 -2.40885,3.45051 z m -38.997293,49.47904 h 0.65104 q 1.888016,0 4.101552,4.75259 0.455728,1.5625 0.520832,3.2552 0,4.8828 -1.562496,6.90102 -0.260416,0.13021 -0.455728,0.13021 h -0.260416 q -0.716144,-0.19531 -0.716144,-2.34374 0,-4.75259 -1.757808,-6.64061 -1.822912,-2.99478 -1.822912,-3.97134 v -0.26042 q 0,-1.5625 1.30208,-1.82291 z m -7.910136,-83.59354 q 0.390624,-1.43229 0.716144,-1.95312 0.130208,-0.26041 0.585936,-0.45573 0.390624,-0.26041 0.97656,-0.45572 0.585936,-0.19532 1.171872,-0.26042 0.65104,-0.13021 1.106768,-0.13021 0.520832,0 1.757808,0.13021 1.236976,0.13021 2.343744,0.13021 0.716144,0 1.692704,0 1.041664,-0.0651 1.95312,-0.0651 0.911456,0 2.539056,0.0651 -0.195312,0.65104 -0.32552,1.04166 -0.130208,0.32552 -0.390624,0.97656 -1.888016,0.45573 -3.841136,1.36719 -0.97656,0.45572 -2.343744,1.30208 -1.30208,0.78124 -2.539056,1.95312 -1.171872,1.17187 -2.018224,2.73436 -0.846352,1.4974 -0.846352,3.38541 0,2.27864 1.041664,3.51562 1.106768,1.17187 2.669264,1.75781 1.562496,0.52083 3.2552,0.65104 1.757808,0.0651 3.059888,0.0651 0.846352,0 1.95312,-0.0651 1.106768,-0.13021 2.083328,-0.19532 1.041664,-0.1302 1.888016,-0.26041 h 1.30208 q -1.95312,1.04166 -3.190096,1.56249 -1.236976,0.52084 -2.408848,0.97656 -1.171872,0.39063 -1.497392,0.45573 -2.083328,0 -4.036448,-0.0651 -1.95312,-0.13021 -3.450512,-0.78125 -1.497392,-0.71614 -2.473952,-2.14843 -0.911456,-1.43229 -0.911456,-4.10155 0,-2.01823 0.455728,-3.64583 0.455728,-1.6276 1.236976,-2.92968 0.781248,-1.30208 1.757808,-2.34374 0.97656,-1.10677 2.018224,-1.95312 0.32552,-0.32552 0.716144,-0.58594 0.455728,-0.26041 0.781248,-0.45573 h -3.059888 q -0.520832,0 -1.171872,0.0651 -1.562496,0.32552 -2.343744,0.52083 -0.716144,0.13021 -1.95312,0.45573 z m 10.481744,7.16144 1.95312,1.30208 -0.97656,2.08333 -1.95312,-1.36718 z"
     id="text1-4-4"
     aria-label="يَرۡفَعِ ٱللَّهُ ٱلَّذِينَ ءَامَنُواْ مِنكُمۡ وَٱلَّذِينَ أُوتُواْ ٱلۡعِلۡمَ دَرَجَٰتٖۚ" />
  <path
     id="rect39"
     style="fill:#d1a632;stroke-width:1.7"
     d="m 997.24023,45.214844 c -0.65103,0 -1.30208,0.239368 -1.95312,0.716797 -0.60764,0.434026 -1.17253,0.975913 -1.69336,1.626953 -0.47743,0.651039 -0.86806,1.302085 -1.17187,1.953125 -0.26042,0.651039 -0.39063,1.171876 -0.39063,1.5625 l 0.13086,0.326172 c 0.47743,-0.390624 0.824,-0.695097 1.04101,-0.91211 0.26042,-0.217013 0.54189,-0.412327 0.84571,-0.585937 0.30382,-0.217013 0.60829,-0.326172 0.91211,-0.326172 1.12846,0 2.3214,0.04405 3.58008,0.130859 1.25865,0.0434 2.27928,0.152562 3.06058,0.326172 -0.7379,1.128468 -1.62832,2.060984 -2.66996,2.798828 -0.99826,0.737845 -1.97483,1.344837 -2.92969,1.822266 -0.95486,0.477429 -1.75716,0.868057 -2.4082,1.171875 -0.65104,0.303818 -0.97656,0.58724 -0.97656,0.847656 l 0.39062,0.128906 c 0.39062,0 0.95552,-0.0651 1.69336,-0.195312 0.73785,-0.173611 1.4961,-0.368925 2.27735,-0.585938 0.82465,-0.217013 1.58485,-0.433377 2.27929,-0.65039 0.69443,-0.260416 1.19429,-0.499784 1.49809,-0.716797 0.2604,-0.217013 0.651,-0.672746 1.1718,-1.367188 0.5209,-0.737844 1.0187,-1.5191 1.4961,-2.34375 0.4775,-0.824649 0.8911,-1.605905 1.2383,-2.34375 0.3906,-0.781247 0.5859,-1.344185 0.5859,-1.691406 0,-0.737847 -0.3485,-1.128475 -1.0429,-1.171875 -0.2171,0 -0.6288,-0.02301 -1.2363,-0.06641 -0.5643,-0.0434 -1.2154,-0.08551 -1.9532,-0.128906 -0.6944,-0.08681 -1.38951,-0.151913 -2.08396,-0.195313 -0.69444,-0.0868 -1.25738,-0.130859 -1.69141,-0.130859 z m 6.34767,19.921875 c -1.6493,0 -3.1908,0.564891 -4.62306,1.693359 -1.56249,1.258676 -2.34375,2.821187 -2.34375,4.6875 0,1.128468 0.47679,2.235247 1.43164,3.320313 0.95486,1.041663 1.80122,1.648655 2.53907,1.822265 0.3906,0.0868 0.7391,0.13086 1.043,0.13086 0.1344,0 0.1802,-0.123979 0.3027,-0.140625 -1.8598,2.023964 -4.816,4.086238 -9.1582,6.195312 -3.16839,1.605897 -4.75196,2.863936 -4.75196,3.775391 0,0.781247 0.6721,1.171875 2.01758,1.171875 0.99826,0 3.77671,-0.97657 8.33399,-2.929688 1.64929,-0.694442 3.75369,-2.408213 6.31449,-5.142578 3.0382,-3.255197 4.5586,-6.033645 4.5586,-8.333984 0,-1.779508 -0.6741,-3.297965 -2.0196,-4.556641 -1.2152,-1.128468 -2.4292,-1.693359 -3.6445,-1.693359 z m -1.043,4.818359 c 1.0851,0 1.6289,0.737202 1.6289,2.212891 0,0.450857 -0.2436,0.909874 -0.375,1.365234 -0.07,-0.350566 -0.4832,-0.642496 -1.4492,-0.84375 -0.9983,-0.217013 -1.4961,-0.651695 -1.4961,-1.302734 0,-0.954858 0.563,-1.431641 1.6914,-1.431641 z m -545.37498,2.017578 c -5.0347,0 -10.11286,3.450546 -15.23437,10.351563 h -1.5625 c -3.2986,0 -4.94922,1.432302 -4.94922,4.296875 0,2.256936 1.04167,4.449443 3.125,6.576172 0.0434,-0.260416 0.0434,-0.651044 0,-1.171875 -0.0868,-0.564234 -0.12891,-0.954862 -0.12891,-1.171875 0,-1.953118 0.6721,-2.929688 2.01758,-2.929688 h 10.87305 c 3.12499,0 5.81532,-1.041674 8.07226,-3.125 2.08333,-1.909715 3.125,-4.016067 3.125,-6.316406 0,-4.340262 -1.77887,-6.509766 -5.33789,-6.509766 z m 423.63086,0 c -5.03471,0 -10.11287,3.450546 -15.23437,10.351563 h -1.5625 c -3.2986,0 -4.94727,1.432302 -4.94727,4.296875 0,2.256936 1.04168,4.449443 3.125,6.576172 0.0434,-0.260416 0.0434,-0.651044 0,-1.171875 -0.0868,-0.564234 -0.13086,-0.954862 -0.13086,-1.171875 0,-1.953118 0.67209,-2.929688 2.01758,-2.929688 h 10.87305 c 3.12498,0 5.81532,-1.041674 8.07226,-3.125 2.08333,-1.909715 3.125,-4.016067 3.125,-6.316406 0,-4.340262 -1.77888,-6.509766 -5.33789,-6.509766 z m 706.37892,0 c -5.0347,0 -10.1129,3.450546 -15.2344,10.351563 h -1.5625 c -3.2986,0 -4.9473,1.432302 -4.9473,4.296875 0,2.256936 1.0417,4.449443 3.125,6.576172 0.043,-0.260416 0.043,-0.651044 0,-1.171875 -0.087,-0.564234 -0.1308,-0.954862 -0.1308,-1.171875 0,-1.953118 0.6721,-2.929688 2.0176,-2.929688 h 10.873 c 3.125,0 5.8153,-1.041674 8.0723,-3.125 2.0833,-1.909715 3.125,-4.016067 3.125,-6.316406 0,-4.340262 -1.7788,-6.509766 -5.3379,-6.509766 z m 119.4648,0 c -5.0347,0 -10.1128,3.450546 -15.2343,10.351563 h -1.5625 c -3.2987,0 -4.9473,1.432302 -4.9473,4.296875 0,2.256936 1.0417,4.449443 3.125,6.576172 0.043,-0.260416 0.043,-0.651044 0,-1.171875 -0.087,-0.564234 -0.1309,-0.954862 -0.1309,-1.171875 0,-1.953118 0.674,-2.929688 2.0196,-2.929688 h 10.8711 c 3.125,0 5.8172,-1.041674 8.0742,-3.125 2.0833,-1.909715 3.125,-4.016067 3.125,-6.316406 0,-4.340262 -1.7809,-6.509766 -5.3399,-6.509766 z M 626.3418,74.707031 c -1.64931,0 -3.19076,0.564891 -4.62305,1.69336 -1.56249,1.258676 -2.34375,2.821187 -2.34375,4.6875 0,1.128468 0.47873,2.235247 1.43359,3.320312 0.95486,1.041663 1.80122,1.648655 2.53907,1.822266 0.39062,0.0868 0.73719,0.130859 1.04101,0.130859 0.13545,0 0.18132,-0.125671 0.30469,-0.142578 -1.85971,2.024343 -4.81514,4.087779 -9.1582,6.197266 -3.16839,1.605897 -4.75391,2.863935 -4.75391,3.77539 0,0.781247 0.67405,1.171875 2.01953,1.171875 0.99827,0 3.77476,-0.976569 8.33203,-2.929687 1.6493,-0.694442 3.75566,-2.408213 6.31641,-5.142578 3.03818,-3.255197 4.55664,-6.033646 4.55664,-8.333985 0,-1.779507 -0.6721,-3.297964 -2.01758,-4.55664 -1.21527,-1.128469 -2.43121,-1.69336 -3.64648,-1.69336 z m -171.77735,1.236328 c 1.38889,0 2.08399,0.82531 2.08399,2.47461 0,2.604157 -1.95314,3.90625 -5.85938,3.90625 h -5.33789 c 3.68922,-4.253457 6.72614,-6.38086 9.11328,-6.38086 z m 423.63282,0 c 1.38887,0 2.08203,0.82531 2.08203,2.47461 0,2.604157 -1.95314,3.90625 -5.85938,3.90625 h -5.33789 c 3.68922,-4.253457 6.72809,-6.38086 9.11524,-6.38086 z m 706.37893,0 c 1.3888,0 2.082,0.82531 2.082,2.47461 0,2.604157 -1.9532,3.90625 -5.8594,3.90625 h -5.3379 c 3.6893,-4.253457 6.7281,-6.38086 9.1153,-6.38086 z m 119.4648,0 c 1.3889,0 2.084,0.82531 2.084,2.47461 0,2.604157 -1.9531,3.90625 -5.8594,3.90625 h -5.3398 c 3.6892,-4.253457 6.7281,-6.38086 9.1152,-6.38086 z M 625.30078,79.525391 c 1.08507,0 1.62695,0.737201 1.62695,2.21289 0,0.45078 -0.24176,0.909954 -0.37304,1.365235 -0.0702,-0.350567 -0.4832,-0.642496 -1.44922,-0.84375 -0.99826,-0.217013 -1.49805,-0.651695 -1.49805,-1.302735 0,-0.954857 0.5649,-1.43164 1.69336,-1.43164 z m 1031.08402,0.845703 c -1.6494,0 -3.1889,0.564891 -4.6211,1.693359 -1.5625,1.258676 -2.3438,2.821187 -2.3438,4.6875 0,1.128468 0.4769,2.235247 1.4317,3.320313 0.9548,1.041663 1.8012,1.648655 2.539,1.822265 0.3906,0.0868 0.7372,0.13086 1.041,0.13086 0.1355,0 0.1814,-0.125672 0.3047,-0.142579 -1.8597,2.024343 -4.8151,4.08778 -9.1582,6.197266 -3.1684,1.605895 -4.7519,2.863942 -4.7519,3.775392 0,0.78125 0.672,1.17187 2.0176,1.17187 0.9981,0 3.7766,-0.97657 8.3339,-2.92968 1.6493,-0.694446 3.7537,-2.408217 6.3145,-5.142582 3.0381,-3.255197 4.5566,-6.033645 4.5566,-8.333984 0,-1.779508 -0.6721,-3.297965 -2.0176,-4.556641 -1.2152,-1.128468 -2.4312,-1.693359 -3.6464,-1.693359 z m -1.041,4.818359 c 1.085,0 1.6269,0.737202 1.6269,2.212891 0,0.450779 -0.2418,0.909954 -0.373,1.365234 -0.07,-0.350566 -0.4832,-0.642496 -1.4493,-0.84375 -0.9982,-0.217013 -1.498,-0.651695 -1.498,-1.302734 0,-0.954858 0.5649,-1.431641 1.6934,-1.431641 z M 343.46484,89.029297 c -0.1736,0 -0.65039,0.434682 -1.43164,1.302734 -1.08506,1.215274 -3.05925,2.431211 -5.92382,3.646485 -2.43055,0.954857 -4.88348,1.908423 -7.35743,2.863281 -1.12846,0.434026 -1.69336,0.998917 -1.69336,1.693359 0,0.694442 0.5649,1.041016 1.69336,1.041016 0.56424,0 1.82228,-0.260419 3.77539,-0.78125 2.21354,-0.564234 3.90626,-1.127172 5.07813,-1.691406 4.9479,-2.343742 7.42187,-4.515198 7.42187,-6.511719 0,-1.041663 -0.52083,-1.5625 -1.5625,-1.5625 z m 483.98438,6.835937 c -0.17361,0 -0.65235,0.434682 -1.4336,1.302735 -1.08506,1.215273 -3.05925,2.431213 -5.92382,3.646481 -2.43055,0.95486 -4.88347,1.90843 -7.35742,2.86328 -1.12847,0.43403 -1.69141,0.99892 -1.69141,1.69336 0,0.69444 0.56294,1.04102 1.69141,1.04102 0.56423,0 1.82422,-0.26042 3.77734,-0.78125 2.21354,-0.56424 3.90625,-1.12717 5.07812,-1.69141 4.9479,-2.34373 7.42188,-4.515195 7.42188,-6.511716 0,-1.041663 -0.52084,-1.5625 -1.5625,-1.5625 z m 706.37698,0 c -0.1736,0 -0.6504,0.434682 -1.4317,1.302735 -1.085,1.215273 -3.0593,2.431209 -5.9238,3.646481 -2.4306,0.95486 -4.8835,1.90843 -7.3574,2.86328 -1.1285,0.43403 -1.6934,0.99892 -1.6934,1.69336 0,0.69444 0.5649,1.04102 1.6934,1.04102 0.5642,0 1.8223,-0.26042 3.7754,-0.78125 2.2135,-0.56424 3.9062,-1.12717 5.0781,-1.69141 4.9479,-2.34373 7.4219,-4.515191 7.4219,-6.511716 0,-1.041663 -0.5209,-1.5625 -1.5625,-1.5625 z m -477.5039,0.261719 c -0.6945,0 -1.4757,0.17231 -2.3438,0.519531 -2.1701,2.734368 -5.3832,6.228966 -9.6367,10.482426 -7.3785,6.38018 -14.1053,11.47939 -20.1816,15.29882 -2.6476,1.6493 -3.9707,2.99545 -3.9707,4.03711 v 0.78125 c 0.2604,0.56424 0.7582,0.84571 1.496,0.84571 1.389,0 4.4489,-1.17188 9.1797,-3.51563 4.6007,-2.08332 9.9182,-5.46877 15.9512,-10.15625 8.5503,-7.72567 12.8262,-12.71572 12.8262,-14.972654 0,-2.213534 -1.1068,-3.320313 -3.3203,-3.320313 z m -493.52152,4.849607 c -1.6493,0 -3.19076,0.5649 -4.62305,1.69336 -1.56249,1.25868 -2.34375,2.82119 -2.34375,4.6875 0,1.12847 0.47874,2.23525 1.4336,3.32031 0.95486,1.04166 1.80121,1.64866 2.53906,1.82227 0.39063,0.0868 0.7372,0.13086 1.04102,0.13086 0.13544,0 0.18132,-0.12567 0.30468,-0.14258 -1.85968,2.02443 -4.81494,4.08768 -9.1582,6.19727 -3.16839,1.6059 -4.75391,2.86394 -4.75391,3.77539 0,0.78124 0.67406,1.17187 2.01954,1.17187 0.99825,0 3.77475,-0.97657 8.33203,-2.92969 1.6493,-0.69443 3.75565,-2.40821 6.3164,-5.14257 3.03819,-3.2552 4.55664,-6.03364 4.55664,-8.33399 0,-1.7795 -0.6721,-3.29796 -2.01757,-4.55664 -1.21528,-1.12846 -2.43121,-1.69336 -3.64649,-1.69336 z m 661.32622,4.62305 c -1.6493,0 -3.1908,0.56293 -4.6231,1.69141 -1.5625,1.25867 -2.3437,2.82118 -2.3437,4.6875 0,1.12846 0.4787,2.23524 1.4336,3.32031 0.9548,1.04166 1.8012,1.65061 2.539,1.82422 0.3907,0.0868 0.7372,0.1289 1.041,0.1289 0.1362,0 0.1827,-0.12547 0.3067,-0.14257 -1.8595,2.02511 -4.8154,4.08693 -9.1602,6.19726 -3.1684,1.6059 -4.7539,2.86589 -4.7539,3.77734 0,0.78126 0.6741,1.17188 2.0195,1.17188 0.9983,0 3.7748,-0.97657 8.3321,-2.92969 1.6493,-0.69444 3.7556,-2.41017 6.3164,-5.14453 3.0382,-3.2552 4.5566,-6.03169 4.5566,-8.33203 0,-1.77951 -0.6721,-3.29992 -2.0176,-4.55859 -1.2153,-1.12848 -2.4312,-1.69141 -3.6464,-1.69141 z m -662.36723,0.19531 c 1.08506,0 1.62695,0.73721 1.62695,2.21289 0,0.45086 -0.24368,0.90988 -0.375,1.36524 -0.071,-0.35007 -0.48222,-0.6427 -1.44727,-0.84375 -0.99826,-0.21702 -1.49804,-0.6517 -1.49804,-1.30274 0,-0.95485 0.56489,-1.43164 1.69336,-1.43164 z m 265.55859,0.42188 c -1.21527,0 -1.82227,1.10677 -1.82227,3.32031 0,0.52083 -0.36957,1.04167 -1.10742,1.5625 -0.73784,0.52083 -1.43294,0.78125 -2.08398,0.78125 -0.82466,0 -1.28039,-0.7372 -1.36719,-2.21289 -0.0434,-1.51909 -0.36893,-2.2793 -0.97656,-2.2793 -0.47744,0 -1.14953,0.67405 -2.01758,2.01953 -1.04166,1.6493 -2.03928,2.75608 -2.99414,3.32032 -0.78125,0.47743 -1.41124,0.71484 -1.88867,0.71484 -0.39062,0 -0.67209,-0.15126 -0.84571,-0.45508 -0.0434,-0.73784 -0.0875,-1.454 -0.13086,-2.14844 -0.1736,-1.25867 -0.65038,-1.88867 -1.43164,-1.88867 -0.86805,0 -1.56315,0.71615 -2.08398,2.14844 -0.47743,1.21527 -0.7168,2.4312 -0.7168,3.64648 0,1.04166 0.28343,2.03929 0.84766,2.99414 0.65104,1.04167 1.40929,1.5625 2.27734,1.5625 0.95486,0 2.2359,-0.43272 3.8418,-1.30078 1.6059,-0.86805 2.79883,-1.82357 3.58008,-2.86523 1.25868,0.95486 2.30035,1.43164 3.125,1.43164 2.21354,0 4.01542,-0.88846 5.40429,-2.66797 1.25868,-1.6493 1.88868,-3.53734 1.88868,-5.66406 0,-1.34549 -0.49979,-2.01953 -1.49805,-2.01953 z m 706.37894,0 c -1.2153,0 -1.8243,1.10677 -1.8243,3.32031 0,0.52083 -0.3676,1.04167 -1.1054,1.5625 -0.7378,0.52083 -1.4329,0.78125 -2.084,0.78125 -0.8247,0 -1.2804,-0.7372 -1.3672,-2.21289 -0.043,-1.51909 -0.369,-2.2793 -0.9766,-2.2793 -0.4774,0 -1.1495,0.67405 -2.0175,2.01953 -1.0417,1.6493 -2.0413,2.75608 -2.9961,3.32032 -0.7812,0.47743 -1.4093,0.71484 -1.8867,0.71484 -0.3906,0 -0.6741,-0.15126 -0.8477,-0.45508 -0.043,-0.73784 -0.086,-1.454 -0.1289,-2.14844 -0.1736,-1.25867 -0.6523,-1.88867 -1.4336,-1.88867 -0.8681,0 -1.5612,0.71615 -2.082,2.14844 -0.4775,1.21527 -0.7168,2.4312 -0.7168,3.64648 0,1.04166 0.2814,2.03929 0.8457,2.99414 0.651,1.04167 1.4112,1.5625 2.2793,1.5625 0.9548,0 2.2359,-0.43272 3.8418,-1.30078 1.6059,-0.86805 2.7988,-1.82357 3.58,-2.86523 1.2587,0.95486 2.3004,1.43164 3.125,1.43164 2.2136,0 4.0155,-0.88846 5.4043,-2.66797 1.2587,-1.6493 1.8868,-3.53734 1.8868,-5.66406 0,-1.34549 -0.4979,-2.01953 -1.4961,-2.01953 z m -1111.91214,1.23828 c -0.65104,0 -1.30209,0.23742 -1.95313,0.71484 -0.60763,0.43403 -1.17253,0.97787 -1.69336,1.62891 -0.47742,0.65104 -0.86805,1.30208 -1.17187,1.95312 -0.26042,0.65104 -0.39063,1.17188 -0.39063,1.5625 l 0.13086,0.32422 c 0.47743,-0.39062 0.824,-0.69314 1.04102,-0.91015 0.26041,-0.21702 0.54383,-0.41234 0.84765,-0.58594 0.30382,-0.21701 0.60635,-0.32617 0.91016,-0.32617 1.12847,0 2.32336,0.0441 3.58203,0.13086 1.25868,0.0434 2.27735,0.15061 3.05859,0.32421 -0.73784,1.12848 -1.62631,2.06294 -2.66796,2.80079 -0.99826,0.73783 -1.97483,1.34483 -2.92969,1.82226 -0.95486,0.47743 -1.75912,0.86806 -2.41016,1.17188 -0.65104,0.30382 -0.97656,0.58529 -0.97656,0.8457 l 0.39062,0.13086 c 0.39063,0 0.95552,-0.0651 1.69336,-0.19531 0.73785,-0.17362 1.49805,-0.36893 2.2793,-0.58594 0.82465,-0.21701 1.5829,-0.43338 2.27734,-0.65039 0.69444,-0.26041 1.19423,-0.49979 1.49805,-0.7168 0.26041,-0.21701 0.65104,-0.67274 1.17188,-1.36719 0.52083,-0.73784 1.02062,-1.51909 1.49804,-2.34375 0.47744,-0.82465 0.88911,-1.60591 1.23633,-2.34375 0.39063,-0.78125 0.58594,-1.34614 0.58594,-1.69336 0,-0.73784 -0.34657,-1.12847 -1.04102,-1.17187 -0.21701,0 -0.63065,-0.0211 -1.23828,-0.0644 -0.56424,-0.0434 -1.21528,-0.0875 -1.95312,-0.13086 -0.69445,-0.0868 -1.3876,-0.15192 -2.08203,-0.19532 -0.69445,-0.0868 -1.25934,-0.1289 -1.69336,-0.1289 z m -87.14063,0.45508 c -0.65104,0 -1.30208,0.23937 -1.95312,0.71679 -0.60764,0.43403 -1.17254,0.97592 -1.69336,1.62696 -0.47744,0.65104 -0.86806,1.30208 -1.17188,1.95312 -0.26041,0.65104 -0.39062,1.17187 -0.39062,1.5625 l 0.13086,0.32617 c 0.47742,-0.39062 0.824,-0.69509 1.04101,-0.91211 0.26042,-0.21701 0.54189,-0.41232 0.8457,-0.58593 0.30382,-0.21702 0.60829,-0.32618 0.91211,-0.32618 1.12847,0 2.3214,0.0441 3.58008,0.13086 1.25868,0.0434 2.2793,0.15257 3.06055,0.32618 -0.73785,1.12847 -1.62826,2.06098 -2.66992,2.79882 -0.99826,0.73785 -1.97483,1.34484 -2.92969,1.82227 -0.95485,0.47743 -1.75716,0.86805 -2.4082,1.17187 -0.65104,0.30382 -0.97657,0.58725 -0.97657,0.84766 l 0.39063,0.12891 c 0.39063,0 0.95552,-0.0651 1.69336,-0.19532 0.73784,-0.17361 1.4961,-0.36892 2.27734,-0.58593 0.82466,-0.21702 1.58486,-0.43338 2.2793,-0.65039 0.69445,-0.26042 1.19423,-0.49979 1.49805,-0.7168 0.26041,-0.21701 0.64909,-0.67274 1.16992,-1.36719 0.52083,-0.73784 1.02062,-1.5191 1.49804,-2.34375 0.47743,-0.82465 0.88911,-1.6059 1.23633,-2.34375 0.39062,-0.78124 0.58594,-1.34418 0.58594,-1.6914 0,-0.73785 -0.34658,-1.12848 -1.04101,-1.17188 -0.21702,0 -0.62869,-0.023 -1.23633,-0.0664 -0.56424,-0.0434 -1.21528,-0.0855 -1.95313,-0.1289 -0.69444,-0.0868 -1.38954,-0.15191 -2.08398,-0.19531 -0.69444,-0.0868 -1.25738,-0.13086 -1.69141,-0.13086 z m 163.76758,0.8457 c -0.60763,0 -1.25868,0.41363 -1.95313,1.23828 -0.65103,0.82465 -1.25803,1.80122 -1.82226,2.92969 -0.56423,1.08506 -1.04102,2.19184 -1.43164,3.32031 -0.34722,1.12847 -0.52149,1.99588 -0.52149,2.60352 0,1.47568 0.47679,2.62652 1.43164,3.45117 0.95486,0.82465 2.12675,1.23633 3.51563,1.23633 0.82465,0 1.6059,-0.23937 2.34375,-0.7168 0.73785,-0.52083 1.36785,-1.14888 1.88867,-1.88672 0.56424,-0.78125 0.99892,-1.58551 1.30274,-2.41016 0.34722,-0.82465 0.51953,-1.56185 0.51953,-2.21289 0,-0.82464 -0.0862,-1.67101 -0.25977,-2.53906 -0.17361,-0.91146 -0.47808,-1.73676 -0.91211,-2.47461 -0.43402,-0.73784 -0.99697,-1.34483 -1.6914,-1.82226 -0.65104,-0.47743 -1.4553,-0.7168 -2.41016,-0.7168 z m 655.14259,0 c -0.6077,0 -1.2587,0.41363 -1.9531,1.23828 -0.651,0.82465 -1.26,1.80122 -1.8243,2.92969 -0.5642,1.08506 -1.0409,2.19184 -1.4316,3.32031 -0.3472,1.12847 -0.5215,1.99588 -0.5215,2.60352 0,1.47568 0.4787,2.62652 1.4336,3.45117 0.9549,0.82465 2.1268,1.23633 3.5156,1.23633 0.8247,0 1.6059,-0.23937 2.3438,-0.7168 0.7378,-0.52083 1.3658,-1.14888 1.8867,-1.88672 0.5642,-0.78125 0.9989,-1.58551 1.3027,-2.41016 0.3472,-0.82465 0.5215,-1.56185 0.5215,-2.21289 0,-0.82464 -0.088,-1.67101 -0.2617,-2.53906 -0.1736,-0.91146 -0.4761,-1.73676 -0.9102,-2.47461 -0.4339,-0.73784 -0.9988,-1.34483 -1.6933,-1.82226 -0.651,-0.47743 -1.4533,-0.7168 -2.4082,-0.7168 z m -998.53322,0.91211 c -1.17186,0 -1.75781,0.67209 -1.75781,2.01758 0,0.39062 0.0862,0.80425 0.25977,1.23828 1.04166,1.86632 1.88802,3.29861 2.53906,4.29687 0.60763,1.34548 0.91211,3.27562 0.91211,5.79297 0,1.51909 0.32552,2.2793 0.97656,2.2793 0.65104,0 1.19293,-0.89042 1.62695,-2.66992 0.30382,-1.25868 0.45704,-2.79819 0.45704,-4.6211 0,-2.86457 -0.97657,-5.29645 -2.92969,-7.29297 -0.69444,-0.69444 -1.38954,-1.04101 -2.08399,-1.04101 z m 1068.06442,0.74805 c 1.0851,0 1.627,0.73915 1.627,2.21484 0,0.45086 -0.2437,0.90987 -0.375,1.36523 -0.071,-0.35008 -0.4822,-0.64464 -1.4473,-0.8457 -0.9982,-0.21701 -1.498,-0.64974 -1.498,-1.30078 0,-0.95486 0.5649,-1.43359 1.6933,-1.43359 z m 588.7344,0.75 c -0.1736,0 -0.6504,0.43272 -1.4316,1.30078 -1.0851,1.21527 -3.0593,2.43121 -5.9239,3.64648 -2.4305,0.95486 -4.8834,1.91038 -7.3574,2.86524 -1.1284,0.43402 -1.6933,0.99696 -1.6933,1.6914 0,0.69444 0.5649,1.04297 1.6933,1.04297 0.5643,0 1.8223,-0.26042 3.7754,-0.78125 2.2135,-0.56424 3.9063,-1.12913 5.0781,-1.69336 4.9479,-2.34374 7.4219,-4.51324 7.4219,-6.50976 0,-1.04166 -0.5208,-1.5625 -1.5625,-1.5625 z m -151.3672,0.19531 c -0.1736,0 -0.6504,0.43273 -1.4316,1.30078 -1.0851,1.21527 -3.0592,2.43121 -5.9238,3.64648 -2.4306,0.95486 -4.8835,1.91038 -7.3575,2.86524 -1.1284,0.43402 -1.6933,0.99697 -1.6933,1.6914 0,0.69445 0.5649,1.04297 1.6933,1.04297 0.5643,0 1.8223,-0.26041 3.7754,-0.78125 2.2136,-0.56423 3.9063,-1.12912 5.0782,-1.69336 4.9478,-2.34373 7.4218,-4.51324 7.4218,-6.50976 0,-1.04166 -0.5209,-1.5625 -1.5625,-1.5625 z M 78.492188,112.40234 c -0.303819,0 -0.673396,0.0441 -1.107422,0.13086 -0.390624,0.0434 -0.781252,0.12956 -1.171875,0.25977 -0.390624,0.13021 -0.716147,0.28147 -0.976563,0.45508 -0.303818,0.13021 -0.499132,0.28342 -0.585937,0.45703 -0.217013,0.34722 -0.454428,0.99826 -0.714844,1.95312 l 0.259765,0.25977 c 0.82465,-0.21701 1.475697,-0.36827 1.953126,-0.45508 0.520831,-0.13021 1.302087,-0.30447 2.34375,-0.52148 0.434026,-0.0434 0.824654,-0.0645 1.171874,-0.0645 h 3.060547 c -0.217013,0.13022 -0.477431,0.28147 -0.78125,0.45508 -0.260415,0.17361 -0.499783,0.36893 -0.716797,0.58594 -0.694441,0.56423 -1.366538,1.21528 -2.017578,1.95312 -0.651039,0.69444 -1.236981,1.4757 -1.757812,2.34375 -0.520832,0.86806 -0.934463,1.84463 -1.238281,2.92969 -0.303819,1.08507 -0.455079,2.301 -0.455079,3.64649 10e-7,1.7795 0.304473,3.1467 0.91211,4.10156 0.651039,0.95486 1.474396,1.67101 2.472656,2.14844 0.99826,0.43402 2.149093,0.69444 3.451172,0.78125 1.302079,0.0434 2.648225,0.0644 4.037109,0.0644 0.217013,-0.0434 0.714847,-0.19466 1.496094,-0.45508 0.781247,-0.30381 1.583553,-0.62934 2.408203,-0.97656 0.82465,-0.34722 1.889328,-0.86806 3.191406,-1.5625 h -1.302734 c -0.564234,0.0868 -1.19423,0.17296 -1.888672,0.25976 -0.651039,0.0434 -1.344186,0.10851 -2.082031,0.19532 -0.737845,0.0434 -1.388891,0.0645 -1.953125,0.0645 -0.868052,0 -1.888676,-0.0211 -3.060547,-0.0645 -1.128468,-0.0868 -2.212243,-0.30317 -3.253906,-0.65039 -1.041663,-0.39063 -1.932077,-0.97657 -2.669922,-1.75782 -0.694442,-0.82465 -1.041016,-1.99653 -1.041016,-3.51562 0,-1.25867 0.281469,-2.38845 0.845703,-3.38672 0.564235,-1.04166 1.236331,-1.95313 2.017579,-2.73438 0.824649,-0.78125 1.67101,-1.43229 2.539062,-1.95312 0.911455,-0.56424 1.692711,-0.99697 2.34375,-1.30078 1.302079,-0.60764 2.583121,-1.06337 3.841797,-1.36719 l 0.390625,-0.97656 c 0.0868,-0.26041 0.194011,-0.60894 0.324219,-1.04297 -1.085066,-0.0434 -1.929473,-0.0644 -2.53711,-0.0644 -0.607636,0 -1.258683,0.021 -1.953125,0.0644 H 82.59375 c -0.737845,0 -1.5191,-0.0421 -2.34375,-0.12891 -0.82465,-0.0868 -1.410592,-0.13086 -1.757812,-0.13086 z m 419.138672,0.25977 c 0.56424,0 1.10808,0.17426 1.62891,0.52148 0.52083,0.30382 0.97656,0.6734 1.36718,1.10743 0.39062,0.43402 0.71615,0.86675 0.97657,1.30078 0.26041,0.43402 0.43272,0.7385 0.51953,0.91211 -0.34722,0.78125 -0.91016,1.47635 -1.69141,2.08398 -0.73785,0.56423 -1.69336,0.8457 -2.86523,0.8457 -1.08507,0 -1.82227,-0.30447 -2.21289,-0.91211 -0.39062,-0.65103 -0.62999,-1.23698 -0.7168,-1.75781 0.0868,-0.26041 0.19596,-0.60699 0.32617,-1.04101 0.17361,-0.47744 0.36893,-0.93317 0.58594,-1.36719 0.26041,-0.47743 0.54188,-0.86806 0.8457,-1.17188 0.34722,-0.34722 0.7589,-0.52148 1.23633,-0.52148 z m 655.14254,0 c 0.5643,0 1.1062,0.17426 1.627,0.52148 0.5209,0.30382 0.9766,0.6734 1.3672,1.10743 0.3906,0.43402 0.7161,0.86675 0.9765,1.30078 0.2604,0.43402 0.4347,0.7385 0.5215,0.91211 -0.3472,0.78125 -0.9121,1.47635 -1.6933,2.08398 -0.7379,0.56423 -1.6934,0.8457 -2.8653,0.8457 -1.085,0 -1.8223,-0.30447 -2.2129,-0.91211 -0.3906,-0.65103 -0.63,-1.23698 -0.7168,-1.75781 0.087,-0.26041 0.1959,-0.60699 0.3262,-1.04101 0.1736,-0.47744 0.369,-0.93317 0.586,-1.36719 0.2604,-0.47743 0.5419,-0.86806 0.8457,-1.17188 0.3472,-0.34722 0.7608,-0.52148 1.2382,-0.52148 z m 507.5508,9.05078 c -1.2152,0 -1.8242,1.10678 -1.8242,3.32031 0,0.52084 -0.3677,1.04168 -1.1055,1.5625 -0.7378,0.52084 -1.4329,0.78125 -2.084,0.78125 -0.8246,0 -1.2803,-0.73916 -1.3671,-2.21484 -0.044,-1.51909 -0.369,-2.27734 -0.9766,-2.27734 -0.4775,0 -1.1496,0.6721 -2.0176,2.01757 -1.0416,1.6493 -2.0412,2.75608 -2.9961,3.32032 -0.7812,0.47743 -1.4093,0.71679 -1.8867,0.71679 -0.3907,0 -0.6741,-0.15321 -0.8476,-0.45703 -0.043,-0.73784 -0.086,-1.454 -0.129,-2.14844 -0.1736,-1.25867 -0.6523,-1.88671 -1.4336,-1.88671 -0.868,0 -1.5612,0.71615 -2.082,2.14843 -0.4774,1.21528 -0.7168,2.42926 -0.7168,3.64453 0,1.04166 0.2815,2.04124 0.8457,2.9961 0.6511,1.04166 1.4113,1.5625 2.2793,1.5625 0.9549,0 2.2359,-0.43468 3.8418,-1.30274 1.6059,-0.86805 2.7988,-1.82357 3.5801,-2.86523 1.2587,0.95486 2.3003,1.43359 3.125,1.43359 2.2135,0 4.0154,-0.89041 5.4043,-2.66992 1.2587,-1.6493 1.8867,-3.53734 1.8867,-5.66406 0,-1.34549 -0.4978,-2.01758 -1.4961,-2.01758 z m -1575.908184,1.10547 -0.976563,2.01953 1.953125,1.36719 0.976563,-2.08399 z m 632.908204,7.45508 c -0.17361,0 -0.6504,0.43468 -1.43164,1.30273 -1.08507,1.21527 -3.05925,2.42926 -5.92383,3.64453 -2.43054,0.95486 -4.88347,1.91038 -7.35742,2.86524 -1.12847,0.43402 -1.69336,0.99892 -1.69336,1.69336 0,0.69444 0.56489,1.04101 1.69336,1.04101 0.56423,0 1.82227,-0.26041 3.77539,-0.78125 2.21354,-0.56423 3.90625,-1.12912 5.07812,-1.69336 4.9479,-2.34374 7.42188,-4.51324 7.42188,-6.50976 0,-1.04167 -0.52084,-1.5625 -1.5625,-1.5625 z m 706.37888,0 c -0.1736,0 -0.6503,0.43468 -1.4316,1.30273 -1.0851,1.21527 -3.0592,2.42926 -5.9238,3.64453 -2.4306,0.95486 -4.8835,1.91038 -7.3575,2.86524 -1.1284,0.43402 -1.6933,0.99892 -1.6933,1.69336 0,0.69444 0.5649,1.04101 1.6933,1.04101 0.5642,0 1.8223,-0.26041 3.7754,-0.78125 2.2136,-0.56423 3.9063,-1.12912 5.0782,-1.69336 4.9479,-2.34374 7.4218,-4.51324 7.4218,-6.50976 0,-1.04167 -0.5208,-1.5625 -1.5625,-1.5625 z m -1259.63279,3.35351 c -0.17361,0 -0.65039,0.43273 -1.43164,1.30078 -1.08506,1.21528 -3.05926,2.43122 -5.92383,3.64649 -2.43055,0.95486 -4.88347,1.91037 -7.35742,2.86523 -1.12846,0.43403 -1.69336,0.99697 -1.69336,1.69141 0,0.69444 0.5649,1.04297 1.69336,1.04297 0.56424,0 1.82227,-0.26043 3.77539,-0.78125 2.21353,-0.56424 3.90626,-1.12913 5.07813,-1.69336 4.94789,-2.34374 7.42187,-4.51324 7.42187,-6.50977 0,-1.04166 -0.52084,-1.5625 -1.5625,-1.5625 z m 1101.49609,1.88672 c -0.1736,0 -0.6523,0.43468 -1.4336,1.30274 -1.0851,1.21527 -3.0592,2.4312 -5.9238,3.64648 -2.4305,0.95485 -4.8835,1.90842 -7.3574,2.86328 -1.1285,0.43403 -1.6914,0.99892 -1.6914,1.69336 0,0.69444 0.5629,1.04102 1.6914,1.04102 0.5642,0 1.8242,-0.26042 3.7773,-0.78125 2.2135,-0.56424 3.9063,-1.12718 5.0781,-1.69141 4.948,-2.34374 7.4219,-4.5152 7.4219,-6.51172 0,-1.04166 -0.5208,-1.5625 -1.5625,-1.5625 z m -349.74023,0.0664 c -0.17361,0 -0.65039,0.43273 -1.43164,1.30078 -1.08506,1.21527 -3.05926,2.43121 -5.92383,3.64648 -2.43055,0.95486 -4.88347,1.91038 -7.35742,2.86524 -1.12847,0.43402 -1.69336,0.99697 -1.69336,1.6914 0,0.69444 0.56489,1.04297 1.69336,1.04297 0.56423,0 1.82227,-0.26042 3.77539,-0.78125 2.21353,-0.56424 3.90625,-1.12912 5.07813,-1.69336 4.9479,-2.34373 7.42187,-4.51324 7.42187,-6.50976 0,-1.04166 -0.52083,-1.5625 -1.5625,-1.5625 z m 410.67773,1.5293 c -0.1736,0 -0.6523,0.43468 -1.4336,1.30273 -1.0851,1.21527 -3.0592,2.42926 -5.9238,3.64453 -2.4305,0.95486 -4.8835,1.91038 -7.3574,2.86524 -1.1285,0.43402 -1.6914,0.99892 -1.6914,1.69335 0,0.69445 0.5629,1.04102 1.6914,1.04102 0.5642,0 1.8242,-0.26042 3.7773,-0.78125 2.2135,-0.56423 3.9063,-1.12913 5.0781,-1.69336 4.948,-2.34374 7.4219,-4.51325 7.4219,-6.50976 0,-1.04167 -0.5208,-1.5625 -1.5625,-1.5625 z m -1070.53906,0.74804 c -0.1736,0 -0.65039,0.43468 -1.43164,1.30274 -1.08506,1.21527 -3.05925,2.43121 -5.92382,3.64648 -2.43055,0.95486 -4.88348,1.90842 -7.35743,2.86328 -1.12846,0.43403 -1.69336,0.99892 -1.69336,1.69336 0,0.69444 0.5649,1.04102 1.69336,1.04102 0.56424,0 1.82228,-0.26043 3.77539,-0.78125 2.21354,-0.56424 3.90626,-1.12718 5.07813,-1.69141 4.9479,-2.34374 7.42187,-4.51519 7.42187,-6.51172 0,-1.04166 -0.52083,-1.5625 -1.5625,-1.5625 z m -45.60546,2.34375 c -0.17361,0 -0.65039,0.43468 -1.43165,1.30274 -1.08506,1.21527 -3.05925,2.43121 -5.92382,3.64648 -2.43055,0.95486 -4.88347,1.90842 -7.35743,2.86328 -1.12847,0.43403 -1.69336,0.99892 -1.69336,1.69336 0,0.69445 0.56489,1.04102 1.69336,1.04102 0.56424,0 1.82228,-0.26042 3.7754,-0.78125 2.21353,-0.56424 3.90625,-1.12718 5.07812,-1.69141 4.9479,-2.34374 7.42188,-4.5152 7.42188,-6.51172 -10e-6,-1.04166 -0.52084,-1.5625 -1.5625,-1.5625 z m 1668.81252,1.85547 c -0.1736,0 -0.6524,0.43468 -1.4336,1.30274 -1.0851,1.21527 -3.0593,2.43121 -5.9238,3.64648 -2.4306,0.95486 -4.8835,1.90843 -7.3575,2.86328 -1.1284,0.43403 -1.6914,0.99891 -1.6914,1.69336 0,0.69444 0.563,1.04102 1.6914,1.04102 0.5643,0 1.8242,-0.26042 3.7774,-0.78125 2.2135,-0.56424 3.9062,-1.12718 5.0781,-1.69141 4.9479,-2.34374 7.4219,-4.5152 7.4219,-6.51172 0,-1.04166 -0.5209,-1.5625 -1.5625,-1.5625 z m -38.9004,1.33594 c -0.6511,0 -1.3021,0.23742 -1.9531,0.71484 -0.6076,0.43403 -1.1725,0.97787 -1.6934,1.62891 -0.4774,0.65104 -0.8681,1.30208 -1.1719,1.95312 -0.2604,0.65104 -0.3906,1.17188 -0.3906,1.5625 l 0.1309,0.32422 c 0.4774,-0.39062 0.824,-0.69314 1.041,-0.91015 0.2604,-0.21702 0.5438,-0.41233 0.8476,-0.58594 0.3038,-0.21701 0.6064,-0.32617 0.9102,-0.32617 1.1285,0 2.3234,0.044 3.582,0.13086 1.2588,0.0434 2.2774,0.15061 3.0586,0.32421 -0.7378,1.12848 -1.6263,2.06295 -2.668,2.80079 -0.9982,0.73784 -1.9748,1.34483 -2.9296,1.82226 -0.9549,0.47743 -1.7591,0.86806 -2.4102,1.17188 -0.651,0.30382 -0.9766,0.58529 -0.9766,0.8457 l 0.3907,0.13086 c 0.3906,0 0.9555,-0.0651 1.6933,-0.19531 0.7379,-0.17362 1.4981,-0.36893 2.2793,-0.58594 0.8246,-0.21701 1.5829,-0.43338 2.2774,-0.65039 0.6944,-0.26041 1.1942,-0.49979 1.498,-0.7168 0.2604,-0.21701 0.651,-0.67274 1.1719,-1.36719 0.5208,-0.73784 1.0206,-1.5191 1.498,-2.34375 0.4775,-0.82465 0.8892,-1.6059 1.2364,-2.34375 0.3906,-0.78124 0.5859,-1.34614 0.5859,-1.69336 0,-0.73784 -0.3466,-1.12847 -1.041,-1.17187 -0.217,0 -0.6306,-0.0211 -1.2383,-0.0645 -0.5642,-0.0434 -1.2153,-0.0875 -1.9531,-0.13086 -0.6945,-0.0868 -1.3877,-0.15192 -2.0821,-0.19532 -0.6944,-0.0868 -1.2593,-0.1289 -1.6933,-0.1289 z M 81.845703,199.25195 c -0.868052,0.17361 -1.302734,0.7806 -1.302734,1.82227 v 0.25976 c 0,0.65104 0.606992,1.97614 1.822265,3.97266 1.171871,1.25868 1.757813,3.47224 1.757813,6.64063 0,1.43228 0.239368,2.21354 0.716797,2.34375 h 0.259765 c 0.130208,0 0.283421,-0.0441 0.457032,-0.13086 1.041663,-1.34548 1.5625,-3.6452 1.5625,-6.90039 -0.0434,-1.12847 -0.217666,-2.2142 -0.521485,-3.25586 -1.475689,-3.16839 -2.842886,-4.75196 -4.101562,-4.75196 z m 318.097657,17.31641 c -0.17361,0 -0.65235,0.43468 -1.43359,1.30273 -1.08507,1.21528 -3.05926,2.43121 -5.92383,3.64649 -2.43055,0.95485 -4.88347,1.90842 -7.35742,2.86328 -1.12847,0.43403 -1.69141,0.99891 -1.69141,1.69336 0,0.69444 0.56294,1.04101 1.69141,1.04101 0.56423,0 1.82422,-0.26041 3.77734,-0.78125 2.21354,-0.56423 3.90625,-1.12717 5.07812,-1.6914 4.9479,-2.34375 7.42188,-4.5152 7.42188,-6.51172 0,-1.04167 -0.52084,-1.5625 -1.5625,-1.5625 z m 425.91016,0 c -0.17362,0 -0.6504,0.43468 -1.43164,1.30273 -1.08507,1.21528 -3.06121,2.43121 -5.92579,3.64649 -2.43054,0.95485 -4.88151,1.90842 -7.35547,2.86328 -1.12846,0.43403 -1.69335,0.99891 -1.69335,1.69336 0,0.69444 0.56489,1.04101 1.69335,1.04101 0.56424,0 1.82228,-0.26041 3.7754,-0.78125 2.21353,-0.56423 3.90625,-1.12717 5.07812,-1.6914 4.9479,-2.34375 7.42188,-4.5152 7.42188,-6.51172 0,-1.04167 -0.52085,-1.5625 -1.5625,-1.5625 z m 274.54298,0 c -0.1737,0 -0.6505,0.43468 -1.4317,1.30273 -1.085,1.21528 -3.0611,2.43121 -5.9257,3.64649 -2.4306,0.95485 -4.8816,1.90842 -7.3555,2.86328 -1.1285,0.43403 -1.6934,0.99891 -1.6934,1.69336 0,0.69444 0.5649,1.04101 1.6934,1.04101 0.5642,0 1.8223,-0.26041 3.7754,-0.78125 2.2135,-0.56423 3.9062,-1.12717 5.0781,-1.6914 4.9479,-2.34375 7.4219,-4.5152 7.4219,-6.51172 0,-1.04167 -0.5208,-1.5625 -1.5625,-1.5625 z m 431.8359,0 c -0.1736,0 -0.6523,0.43468 -1.4336,1.30273 -1.085,1.21528 -3.0593,2.43121 -5.9238,3.64649 -2.4306,0.95485 -4.8835,1.90842 -7.3574,2.86328 -1.1285,0.43403 -1.6914,0.99891 -1.6914,1.69336 0,0.69444 0.5629,1.04101 1.6914,1.04101 0.5642,0 1.8243,-0.26041 3.7773,-0.78125 2.2136,-0.56423 3.9063,-1.12717 5.0781,-1.6914 4.948,-2.34375 7.4219,-4.5152 7.4219,-6.51172 0,-1.04167 -0.5208,-1.5625 -1.5625,-1.5625 z m 238.8008,27.66992 c -0.1736,0 -0.6504,0.43468 -1.4316,1.30274 -1.0851,1.21527 -3.0613,2.42925 -5.9258,3.64453 -2.4306,0.95486 -4.8816,1.91038 -7.3555,2.86523 -1.1285,0.43403 -1.6933,0.99891 -1.6933,1.69336 0,0.69444 0.5648,1.04102 1.6933,1.04102 0.5643,0 1.8223,-0.26042 3.7754,-0.78125 2.2135,-0.56424 3.9062,-1.12913 5.0781,-1.69336 4.9479,-2.34375 7.4219,-4.51325 7.4219,-6.50977 0,-1.04166 -0.5208,-1.5625 -1.5625,-1.5625 z" />
  <path
     id="rect1"
     style="fill:#558049;fill-opacity:1;stroke-width:1.7"
     d="m 1056.3223,96.126953 c -0.6945,0 -1.4757,0.17231 -2.3438,0.519531 -2.1701,2.734368 -5.3832,6.228966 -9.6367,10.482426 -7.3785,6.38018 -14.1053,11.47939 -20.1816,15.29882 -2.6476,1.6493 -3.9707,2.99545 -3.9707,4.03711 v 0.78125 c 0.2604,0.56424 0.7582,0.84571 1.496,0.84571 1.389,0 4.4489,-1.17188 9.1797,-3.51563 4.6007,-2.08332 9.9182,-5.46877 15.9512,-10.15625 8.5503,-7.72567 12.8262,-12.71572 12.8262,-14.972654 0,-2.213537 -1.1068,-3.320313 -3.3203,-3.320313 z" />
</svg>
